<?xml version="1.0" encoding="UTF-8"?>
<svg xmlns="http://www.w3.org/2000/svg" xmlns:xlink="http://www.w3.org/1999/xlink" width="234pt" height="78.266337pt" viewBox="0 0 234 78.266337">
<defs>
<g>
<g id="glyph-0-0">
<path d="M 0.640625 -4.328125 L 2.9375 -4.328125 L 2.9375 -3.828125 L 1.171875 -3.828125 L 1.171875 -2.78125 C 1.253906 -2.800781 1.335938 -2.816406 1.421875 -2.828125 C 1.515625 -2.847656 1.601562 -2.859375 1.6875 -2.859375 C 2.164062 -2.859375 2.546875 -2.722656 2.828125 -2.453125 C 3.117188 -2.191406 3.265625 -1.835938 3.265625 -1.390625 C 3.265625 -0.921875 3.117188 -0.554688 2.828125 -0.296875 C 2.535156 -0.046875 2.125 0.078125 1.59375 0.078125 C 1.414062 0.078125 1.234375 0.0625 1.046875 0.03125 C 0.859375 0 0.660156 -0.0390625 0.453125 -0.09375 L 0.453125 -0.6875 C 0.628906 -0.59375 0.8125 -0.519531 1 -0.46875 C 1.1875 -0.425781 1.378906 -0.40625 1.578125 -0.40625 C 1.921875 -0.40625 2.1875 -0.492188 2.375 -0.671875 C 2.570312 -0.847656 2.671875 -1.085938 2.671875 -1.390625 C 2.671875 -1.691406 2.570312 -1.929688 2.375 -2.109375 C 2.1875 -2.285156 1.921875 -2.375 1.578125 -2.375 C 1.421875 -2.375 1.265625 -2.351562 1.109375 -2.3125 C 0.960938 -2.28125 0.804688 -2.226562 0.640625 -2.15625 Z M 0.640625 -4.328125 "/>
</g>
<g id="glyph-0-1">
<path d="M 1.890625 -3.9375 C 1.585938 -3.9375 1.359375 -3.785156 1.203125 -3.484375 C 1.054688 -3.191406 0.984375 -2.75 0.984375 -2.15625 C 0.984375 -1.5625 1.054688 -1.113281 1.203125 -0.8125 C 1.359375 -0.519531 1.585938 -0.375 1.890625 -0.375 C 2.191406 -0.375 2.414062 -0.519531 2.5625 -0.8125 C 2.71875 -1.113281 2.796875 -1.5625 2.796875 -2.15625 C 2.796875 -2.75 2.71875 -3.191406 2.5625 -3.484375 C 2.414062 -3.785156 2.191406 -3.9375 1.890625 -3.9375 Z M 1.890625 -4.40625 C 2.367188 -4.40625 2.738281 -4.210938 3 -3.828125 C 3.257812 -3.441406 3.390625 -2.882812 3.390625 -2.15625 C 3.390625 -1.425781 3.257812 -0.867188 3 -0.484375 C 2.738281 -0.109375 2.367188 0.078125 1.890625 0.078125 C 1.398438 0.078125 1.023438 -0.109375 0.765625 -0.484375 C 0.515625 -0.867188 0.390625 -1.425781 0.390625 -2.15625 C 0.390625 -2.882812 0.515625 -3.441406 0.765625 -3.828125 C 1.023438 -4.210938 1.398438 -4.40625 1.890625 -4.40625 Z M 1.890625 -4.40625 "/>
</g>
<g id="glyph-0-2">
<path d="M 0.734375 -0.5 L 1.6875 -0.5 L 1.6875 -3.796875 L 0.65625 -3.59375 L 0.65625 -4.125 L 1.6875 -4.328125 L 2.265625 -4.328125 L 2.265625 -0.5 L 3.234375 -0.5 L 3.234375 0 L 0.734375 0 Z M 0.734375 -0.5 "/>
</g>
<g id="glyph-0-3">
<path d="M 1.140625 -0.5 L 3.1875 -0.5 L 3.1875 0 L 0.4375 0 L 0.4375 -0.5 C 0.65625 -0.726562 0.957031 -1.035156 1.34375 -1.421875 C 1.726562 -1.804688 1.96875 -2.054688 2.0625 -2.171875 C 2.25 -2.378906 2.378906 -2.554688 2.453125 -2.703125 C 2.535156 -2.847656 2.578125 -2.992188 2.578125 -3.140625 C 2.578125 -3.367188 2.492188 -3.550781 2.328125 -3.6875 C 2.171875 -3.832031 1.960938 -3.90625 1.703125 -3.90625 C 1.515625 -3.90625 1.316406 -3.875 1.109375 -3.8125 C 0.910156 -3.75 0.695312 -3.65625 0.46875 -3.53125 L 0.46875 -4.125 C 0.695312 -4.21875 0.914062 -4.285156 1.125 -4.328125 C 1.332031 -4.378906 1.519531 -4.40625 1.6875 -4.40625 C 2.132812 -4.40625 2.488281 -4.289062 2.75 -4.0625 C 3.019531 -3.84375 3.15625 -3.546875 3.15625 -3.171875 C 3.15625 -2.992188 3.117188 -2.820312 3.046875 -2.65625 C 2.984375 -2.5 2.867188 -2.316406 2.703125 -2.109375 C 2.648438 -2.046875 2.492188 -1.878906 2.234375 -1.609375 C 1.972656 -1.347656 1.609375 -0.976562 1.140625 -0.5 Z M 1.140625 -0.5 "/>
</g>
<g id="glyph-0-4">
<path d="M 0.484375 -4.328125 L 3.265625 -4.328125 L 3.265625 -4.078125 L 1.703125 0 L 1.09375 0 L 2.5625 -3.828125 L 0.484375 -3.828125 Z M 0.484375 -4.328125 "/>
</g>
<g id="glyph-0-5">
<path d="M 2.25 -3.8125 L 0.765625 -1.5 L 2.25 -1.5 Z M 2.09375 -4.328125 L 2.828125 -4.328125 L 2.828125 -1.5 L 3.4375 -1.5 L 3.4375 -1.015625 L 2.828125 -1.015625 L 2.828125 0 L 2.25 0 L 2.25 -1.015625 L 0.296875 -1.015625 L 0.296875 -1.578125 Z M 2.09375 -4.328125 "/>
</g>
<g id="glyph-1-0">
<path d="M 2 -4.890625 C 1.71875 -4.398438 1.507812 -3.921875 1.375 -3.453125 C 1.238281 -2.984375 1.171875 -2.503906 1.171875 -2.015625 C 1.171875 -1.535156 1.238281 -1.054688 1.375 -0.578125 C 1.507812 -0.109375 1.71875 0.363281 2 0.84375 L 1.5 0.84375 C 1.175781 0.351562 0.9375 -0.125 0.78125 -0.59375 C 0.625 -1.070312 0.546875 -1.546875 0.546875 -2.015625 C 0.546875 -2.484375 0.625 -2.953125 0.78125 -3.421875 C 0.9375 -3.898438 1.175781 -4.390625 1.5 -4.890625 Z M 2 -4.890625 "/>
</g>
<g id="glyph-1-1">
<path d="M 2.203125 -1.765625 C 1.734375 -1.765625 1.410156 -1.710938 1.234375 -1.609375 C 1.054688 -1.503906 0.96875 -1.320312 0.96875 -1.0625 C 0.96875 -0.851562 1.035156 -0.6875 1.171875 -0.5625 C 1.304688 -0.445312 1.488281 -0.390625 1.71875 -0.390625 C 2.039062 -0.390625 2.296875 -0.503906 2.484375 -0.734375 C 2.679688 -0.960938 2.78125 -1.265625 2.78125 -1.640625 L 2.78125 -1.765625 Z M 3.359375 -2.015625 L 3.359375 0 L 2.78125 0 L 2.78125 -0.53125 C 2.644531 -0.320312 2.476562 -0.164062 2.28125 -0.0625 C 2.09375 0.0390625 1.851562 0.09375 1.5625 0.09375 C 1.207031 0.09375 0.921875 -0.00390625 0.703125 -0.203125 C 0.492188 -0.410156 0.390625 -0.6875 0.390625 -1.03125 C 0.390625 -1.425781 0.519531 -1.722656 0.78125 -1.921875 C 1.050781 -2.117188 1.445312 -2.21875 1.96875 -2.21875 L 2.78125 -2.21875 L 2.78125 -2.28125 C 2.78125 -2.539062 2.691406 -2.742188 2.515625 -2.890625 C 2.335938 -3.035156 2.09375 -3.109375 1.78125 -3.109375 C 1.582031 -3.109375 1.382812 -3.082031 1.1875 -3.03125 C 1 -2.988281 0.816406 -2.921875 0.640625 -2.828125 L 0.640625 -3.359375 C 0.859375 -3.441406 1.066406 -3.503906 1.265625 -3.546875 C 1.460938 -3.585938 1.65625 -3.609375 1.84375 -3.609375 C 2.351562 -3.609375 2.734375 -3.472656 2.984375 -3.203125 C 3.234375 -2.941406 3.359375 -2.546875 3.359375 -2.015625 Z M 3.359375 -2.015625 "/>
</g>
<g id="glyph-1-2">
<path d="M 0.515625 -4.890625 L 1.015625 -4.890625 C 1.328125 -4.390625 1.5625 -3.898438 1.71875 -3.421875 C 1.875 -2.953125 1.953125 -2.484375 1.953125 -2.015625 C 1.953125 -1.546875 1.875 -1.070312 1.71875 -0.59375 C 1.5625 -0.125 1.328125 0.351562 1.015625 0.84375 L 0.515625 0.84375 C 0.796875 0.363281 1.003906 -0.109375 1.140625 -0.578125 C 1.273438 -1.054688 1.34375 -1.535156 1.34375 -2.015625 C 1.34375 -2.503906 1.273438 -2.984375 1.140625 -3.453125 C 1.003906 -3.921875 0.796875 -4.398438 0.515625 -4.890625 Z M 0.515625 -4.890625 "/>
</g>
<g id="glyph-1-3">
</g>
<g id="glyph-1-4">
<path d="M 3.4375 -4.53125 L 3.4375 -3.921875 C 3.195312 -4.035156 2.96875 -4.117188 2.75 -4.171875 C 2.539062 -4.234375 2.335938 -4.265625 2.140625 -4.265625 C 1.796875 -4.265625 1.53125 -4.195312 1.34375 -4.0625 C 1.15625 -3.925781 1.0625 -3.734375 1.0625 -3.484375 C 1.0625 -3.273438 1.125 -3.117188 1.25 -3.015625 C 1.375 -2.910156 1.609375 -2.828125 1.953125 -2.765625 L 2.34375 -2.6875 C 2.8125 -2.59375 3.160156 -2.429688 3.390625 -2.203125 C 3.617188 -1.972656 3.734375 -1.671875 3.734375 -1.296875 C 3.734375 -0.835938 3.578125 -0.488281 3.265625 -0.25 C 2.960938 -0.0195312 2.519531 0.09375 1.9375 0.09375 C 1.707031 0.09375 1.46875 0.0664062 1.21875 0.015625 C 0.96875 -0.0351562 0.707031 -0.109375 0.4375 -0.203125 L 0.4375 -0.859375 C 0.695312 -0.710938 0.953125 -0.601562 1.203125 -0.53125 C 1.453125 -0.457031 1.695312 -0.421875 1.9375 -0.421875 C 2.289062 -0.421875 2.566406 -0.492188 2.765625 -0.640625 C 2.960938 -0.785156 3.0625 -0.988281 3.0625 -1.25 C 3.0625 -1.476562 2.988281 -1.65625 2.84375 -1.78125 C 2.707031 -1.914062 2.476562 -2.015625 2.15625 -2.078125 L 1.765625 -2.15625 C 1.296875 -2.25 0.953125 -2.394531 0.734375 -2.59375 C 0.523438 -2.800781 0.421875 -3.082031 0.421875 -3.4375 C 0.421875 -3.851562 0.566406 -4.179688 0.859375 -4.421875 C 1.148438 -4.660156 1.554688 -4.78125 2.078125 -4.78125 C 2.296875 -4.78125 2.519531 -4.757812 2.75 -4.71875 C 2.976562 -4.675781 3.207031 -4.613281 3.4375 -4.53125 Z M 3.4375 -4.53125 "/>
</g>
<g id="glyph-1-5">
<path d="M 3.34375 -2.84375 C 3.488281 -3.101562 3.660156 -3.296875 3.859375 -3.421875 C 4.066406 -3.546875 4.304688 -3.609375 4.578125 -3.609375 C 4.941406 -3.609375 5.222656 -3.476562 5.421875 -3.21875 C 5.617188 -2.957031 5.71875 -2.59375 5.71875 -2.125 L 5.71875 0 L 5.140625 0 L 5.140625 -2.109375 C 5.140625 -2.441406 5.078125 -2.691406 4.953125 -2.859375 C 4.835938 -3.023438 4.660156 -3.109375 4.421875 -3.109375 C 4.117188 -3.109375 3.878906 -3.003906 3.703125 -2.796875 C 3.523438 -2.597656 3.4375 -2.328125 3.4375 -1.984375 L 3.4375 0 L 2.859375 0 L 2.859375 -2.109375 C 2.859375 -2.441406 2.796875 -2.691406 2.671875 -2.859375 C 2.554688 -3.023438 2.375 -3.109375 2.125 -3.109375 C 1.832031 -3.109375 1.597656 -3.003906 1.421875 -2.796875 C 1.253906 -2.597656 1.171875 -2.328125 1.171875 -1.984375 L 1.171875 0 L 0.578125 0 L 0.578125 -3.515625 L 1.171875 -3.515625 L 1.171875 -2.96875 C 1.296875 -3.1875 1.453125 -3.347656 1.640625 -3.453125 C 1.828125 -3.554688 2.046875 -3.609375 2.296875 -3.609375 C 2.554688 -3.609375 2.773438 -3.539062 2.953125 -3.40625 C 3.128906 -3.28125 3.257812 -3.09375 3.34375 -2.84375 Z M 3.34375 -2.84375 "/>
</g>
<g id="glyph-1-6">
<path d="M 1.171875 -0.53125 L 1.171875 1.34375 L 0.578125 1.34375 L 0.578125 -3.515625 L 1.171875 -3.515625 L 1.171875 -2.984375 C 1.285156 -3.191406 1.4375 -3.347656 1.625 -3.453125 C 1.8125 -3.554688 2.035156 -3.609375 2.296875 -3.609375 C 2.722656 -3.609375 3.066406 -3.4375 3.328125 -3.09375 C 3.597656 -2.757812 3.734375 -2.3125 3.734375 -1.75 C 3.734375 -1.195312 3.597656 -0.75 3.328125 -0.40625 C 3.066406 -0.0703125 2.722656 0.09375 2.296875 0.09375 C 2.035156 0.09375 1.8125 0.0390625 1.625 -0.0625 C 1.4375 -0.164062 1.285156 -0.320312 1.171875 -0.53125 Z M 3.140625 -1.75 C 3.140625 -2.175781 3.050781 -2.507812 2.875 -2.75 C 2.695312 -3 2.457031 -3.125 2.15625 -3.125 C 1.84375 -3.125 1.597656 -3 1.421875 -2.75 C 1.253906 -2.507812 1.171875 -2.175781 1.171875 -1.75 C 1.171875 -1.332031 1.253906 -1 1.421875 -0.75 C 1.597656 -0.507812 1.84375 -0.390625 2.15625 -0.390625 C 2.457031 -0.390625 2.695312 -0.507812 2.875 -0.75 C 3.050781 -1 3.140625 -1.332031 3.140625 -1.75 Z M 3.140625 -1.75 "/>
</g>
<g id="glyph-1-7">
<path d="M 0.609375 -4.890625 L 1.1875 -4.890625 L 1.1875 0 L 0.609375 0 Z M 0.609375 -4.890625 "/>
</g>
<g id="glyph-1-8">
<path d="M 3.625 -1.90625 L 3.625 -1.625 L 0.953125 -1.625 C 0.984375 -1.226562 1.101562 -0.925781 1.3125 -0.71875 C 1.53125 -0.507812 1.832031 -0.40625 2.21875 -0.40625 C 2.4375 -0.40625 2.648438 -0.429688 2.859375 -0.484375 C 3.066406 -0.535156 3.273438 -0.613281 3.484375 -0.71875 L 3.484375 -0.171875 C 3.273438 -0.0859375 3.0625 -0.0234375 2.84375 0.015625 C 2.625 0.0664062 2.40625 0.09375 2.1875 0.09375 C 1.625 0.09375 1.175781 -0.0664062 0.84375 -0.390625 C 0.519531 -0.722656 0.359375 -1.164062 0.359375 -1.71875 C 0.359375 -2.300781 0.507812 -2.757812 0.8125 -3.09375 C 1.125 -3.4375 1.546875 -3.609375 2.078125 -3.609375 C 2.554688 -3.609375 2.929688 -3.453125 3.203125 -3.140625 C 3.484375 -2.835938 3.625 -2.425781 3.625 -1.90625 Z M 3.046875 -2.078125 C 3.035156 -2.390625 2.941406 -2.640625 2.765625 -2.828125 C 2.597656 -3.015625 2.375 -3.109375 2.09375 -3.109375 C 1.769531 -3.109375 1.507812 -3.015625 1.3125 -2.828125 C 1.113281 -2.648438 1.003906 -2.398438 0.984375 -2.078125 Z M 3.046875 -2.078125 "/>
</g>
<g id="glyph-1-9">
<path d="M 2.921875 -2.984375 L 2.921875 -4.890625 L 3.5 -4.890625 L 3.5 0 L 2.921875 0 L 2.921875 -0.53125 C 2.796875 -0.320312 2.640625 -0.164062 2.453125 -0.0625 C 2.273438 0.0390625 2.054688 0.09375 1.796875 0.09375 C 1.367188 0.09375 1.019531 -0.0703125 0.75 -0.40625 C 0.488281 -0.75 0.359375 -1.195312 0.359375 -1.75 C 0.359375 -2.3125 0.488281 -2.757812 0.75 -3.09375 C 1.019531 -3.4375 1.367188 -3.609375 1.796875 -3.609375 C 2.054688 -3.609375 2.273438 -3.554688 2.453125 -3.453125 C 2.640625 -3.347656 2.796875 -3.191406 2.921875 -2.984375 Z M 0.953125 -1.75 C 0.953125 -1.332031 1.039062 -1 1.21875 -0.75 C 1.394531 -0.507812 1.632812 -0.390625 1.9375 -0.390625 C 2.238281 -0.390625 2.476562 -0.507812 2.65625 -0.75 C 2.832031 -1 2.921875 -1.332031 2.921875 -1.75 C 2.921875 -2.175781 2.832031 -2.507812 2.65625 -2.75 C 2.476562 -3 2.238281 -3.125 1.9375 -3.125 C 1.632812 -3.125 1.394531 -3 1.21875 -2.75 C 1.039062 -2.507812 0.953125 -2.175781 0.953125 -1.75 Z M 0.953125 -1.75 "/>
</g>
<g id="glyph-1-10">
<path d="M 0.609375 -3.515625 L 1.1875 -3.515625 L 1.1875 0 L 0.609375 0 Z M 0.609375 -4.890625 L 1.1875 -4.890625 L 1.1875 -4.15625 L 0.609375 -4.15625 Z M 0.609375 -4.890625 "/>
</g>
<g id="glyph-1-11">
<path d="M 2.84375 -3.421875 L 2.84375 -2.875 C 2.6875 -2.957031 2.519531 -3.019531 2.34375 -3.0625 C 2.164062 -3.101562 1.984375 -3.125 1.796875 -3.125 C 1.503906 -3.125 1.285156 -3.078125 1.140625 -2.984375 C 1.003906 -2.898438 0.9375 -2.769531 0.9375 -2.59375 C 0.9375 -2.457031 0.984375 -2.347656 1.078125 -2.265625 C 1.179688 -2.191406 1.390625 -2.125 1.703125 -2.0625 L 1.90625 -2.015625 C 2.3125 -1.929688 2.601562 -1.804688 2.78125 -1.640625 C 2.957031 -1.484375 3.046875 -1.257812 3.046875 -0.96875 C 3.046875 -0.644531 2.914062 -0.382812 2.65625 -0.1875 C 2.394531 0 2.035156 0.09375 1.578125 0.09375 C 1.390625 0.09375 1.191406 0.0703125 0.984375 0.03125 C 0.785156 0 0.570312 -0.0507812 0.34375 -0.125 L 0.34375 -0.71875 C 0.5625 -0.613281 0.773438 -0.53125 0.984375 -0.46875 C 1.191406 -0.414062 1.394531 -0.390625 1.59375 -0.390625 C 1.863281 -0.390625 2.070312 -0.4375 2.21875 -0.53125 C 2.375 -0.625 2.453125 -0.753906 2.453125 -0.921875 C 2.453125 -1.078125 2.394531 -1.195312 2.28125 -1.28125 C 2.175781 -1.375 1.945312 -1.457031 1.59375 -1.53125 L 1.390625 -1.578125 C 1.035156 -1.648438 0.773438 -1.765625 0.609375 -1.921875 C 0.453125 -2.078125 0.375 -2.289062 0.375 -2.5625 C 0.375 -2.894531 0.488281 -3.148438 0.71875 -3.328125 C 0.957031 -3.515625 1.289062 -3.609375 1.71875 -3.609375 C 1.9375 -3.609375 2.140625 -3.59375 2.328125 -3.5625 C 2.515625 -3.53125 2.6875 -3.484375 2.84375 -3.421875 Z M 2.84375 -3.421875 "/>
</g>
<g id="glyph-1-12">
<path d="M 1.171875 -4.515625 L 1.171875 -3.515625 L 2.375 -3.515625 L 2.375 -3.078125 L 1.171875 -3.078125 L 1.171875 -1.15625 C 1.171875 -0.875 1.210938 -0.691406 1.296875 -0.609375 C 1.378906 -0.523438 1.539062 -0.484375 1.78125 -0.484375 L 2.375 -0.484375 L 2.375 0 L 1.78125 0 C 1.332031 0 1.019531 -0.0820312 0.84375 -0.25 C 0.675781 -0.414062 0.59375 -0.71875 0.59375 -1.15625 L 0.59375 -3.078125 L 0.171875 -3.078125 L 0.171875 -3.515625 L 0.59375 -3.515625 L 0.59375 -4.515625 Z M 1.171875 -4.515625 "/>
</g>
<g id="glyph-1-13">
<path d="M 2.640625 -2.984375 C 2.578125 -3.015625 2.503906 -3.039062 2.421875 -3.0625 C 2.347656 -3.082031 2.269531 -3.09375 2.1875 -3.09375 C 1.851562 -3.09375 1.597656 -2.984375 1.421875 -2.765625 C 1.253906 -2.554688 1.171875 -2.253906 1.171875 -1.859375 L 1.171875 0 L 0.578125 0 L 0.578125 -3.515625 L 1.171875 -3.515625 L 1.171875 -2.96875 C 1.285156 -3.1875 1.441406 -3.347656 1.640625 -3.453125 C 1.835938 -3.554688 2.070312 -3.609375 2.34375 -3.609375 C 2.382812 -3.609375 2.429688 -3.601562 2.484375 -3.59375 C 2.535156 -3.59375 2.585938 -3.585938 2.640625 -3.578125 Z M 2.640625 -2.984375 "/>
</g>
<g id="glyph-1-14">
<path d="M 3.140625 -1.75 C 3.140625 -2.175781 3.050781 -2.507812 2.875 -2.75 C 2.695312 -3 2.457031 -3.125 2.15625 -3.125 C 1.84375 -3.125 1.597656 -3 1.421875 -2.75 C 1.253906 -2.507812 1.171875 -2.175781 1.171875 -1.75 C 1.171875 -1.332031 1.253906 -1 1.421875 -0.75 C 1.597656 -0.507812 1.84375 -0.390625 2.15625 -0.390625 C 2.457031 -0.390625 2.695312 -0.507812 2.875 -0.75 C 3.050781 -1 3.140625 -1.332031 3.140625 -1.75 Z M 1.171875 -2.984375 C 1.285156 -3.191406 1.4375 -3.347656 1.625 -3.453125 C 1.8125 -3.554688 2.035156 -3.609375 2.296875 -3.609375 C 2.722656 -3.609375 3.066406 -3.4375 3.328125 -3.09375 C 3.597656 -2.757812 3.734375 -2.3125 3.734375 -1.75 C 3.734375 -1.195312 3.597656 -0.75 3.328125 -0.40625 C 3.066406 -0.0703125 2.722656 0.09375 2.296875 0.09375 C 2.035156 0.09375 1.8125 0.0390625 1.625 -0.0625 C 1.4375 -0.164062 1.285156 -0.320312 1.171875 -0.53125 L 1.171875 0 L 0.578125 0 L 0.578125 -4.890625 L 1.171875 -4.890625 Z M 1.171875 -2.984375 "/>
</g>
<g id="glyph-1-15">
<path d="M 0.546875 -1.390625 L 0.546875 -3.515625 L 1.125 -3.515625 L 1.125 -1.40625 C 1.125 -1.070312 1.1875 -0.820312 1.3125 -0.65625 C 1.445312 -0.488281 1.644531 -0.40625 1.90625 -0.40625 C 2.21875 -0.40625 2.460938 -0.503906 2.640625 -0.703125 C 2.828125 -0.910156 2.921875 -1.1875 2.921875 -1.53125 L 2.921875 -3.515625 L 3.5 -3.515625 L 3.5 0 L 2.921875 0 L 2.921875 -0.546875 C 2.773438 -0.328125 2.609375 -0.164062 2.421875 -0.0625 C 2.242188 0.0390625 2.03125 0.09375 1.78125 0.09375 C 1.375 0.09375 1.066406 -0.03125 0.859375 -0.28125 C 0.648438 -0.53125 0.546875 -0.898438 0.546875 -1.390625 Z M 2 -3.609375 Z M 2 -3.609375 "/>
</g>
<g id="glyph-1-16">
<path d="M 1.96875 -3.109375 C 1.65625 -3.109375 1.410156 -2.988281 1.234375 -2.75 C 1.054688 -2.507812 0.96875 -2.175781 0.96875 -1.75 C 0.96875 -1.332031 1.054688 -1.003906 1.234375 -0.765625 C 1.410156 -0.523438 1.65625 -0.40625 1.96875 -0.40625 C 2.28125 -0.40625 2.523438 -0.523438 2.703125 -0.765625 C 2.878906 -1.003906 2.96875 -1.332031 2.96875 -1.75 C 2.96875 -2.164062 2.878906 -2.492188 2.703125 -2.734375 C 2.523438 -2.984375 2.28125 -3.109375 1.96875 -3.109375 Z M 1.96875 -3.609375 C 2.46875 -3.609375 2.863281 -3.441406 3.15625 -3.109375 C 3.445312 -2.785156 3.59375 -2.332031 3.59375 -1.75 C 3.59375 -1.175781 3.445312 -0.722656 3.15625 -0.390625 C 2.863281 -0.0664062 2.46875 0.09375 1.96875 0.09375 C 1.46875 0.09375 1.070312 -0.0664062 0.78125 -0.390625 C 0.5 -0.722656 0.359375 -1.175781 0.359375 -1.75 C 0.359375 -2.332031 0.5 -2.785156 0.78125 -3.109375 C 1.070312 -3.441406 1.46875 -3.609375 1.96875 -3.609375 Z M 1.96875 -3.609375 "/>
</g>
<g id="glyph-1-17">
<path d="M 3.53125 -2.125 L 3.53125 0 L 2.953125 0 L 2.953125 -2.109375 C 2.953125 -2.441406 2.882812 -2.691406 2.75 -2.859375 C 2.625 -3.023438 2.429688 -3.109375 2.171875 -3.109375 C 1.859375 -3.109375 1.613281 -3.003906 1.4375 -2.796875 C 1.257812 -2.597656 1.171875 -2.328125 1.171875 -1.984375 L 1.171875 0 L 0.578125 0 L 0.578125 -3.515625 L 1.171875 -3.515625 L 1.171875 -2.96875 C 1.304688 -3.1875 1.46875 -3.347656 1.65625 -3.453125 C 1.84375 -3.554688 2.054688 -3.609375 2.296875 -3.609375 C 2.703125 -3.609375 3.007812 -3.484375 3.21875 -3.234375 C 3.425781 -2.984375 3.53125 -2.613281 3.53125 -2.125 Z M 3.53125 -2.125 "/>
</g>
<g id="glyph-1-18">
<path d="M 3.828125 -0.671875 L 3.828125 -1.9375 L 2.796875 -1.9375 L 2.796875 -2.453125 L 4.453125 -2.453125 L 4.453125 -0.4375 C 4.210938 -0.257812 3.941406 -0.125 3.640625 -0.03125 C 3.347656 0.0507812 3.035156 0.09375 2.703125 0.09375 C 1.972656 0.09375 1.398438 -0.117188 0.984375 -0.546875 C 0.566406 -0.972656 0.359375 -1.570312 0.359375 -2.34375 C 0.359375 -3.113281 0.566406 -3.710938 0.984375 -4.140625 C 1.398438 -4.566406 1.972656 -4.78125 2.703125 -4.78125 C 3.003906 -4.78125 3.289062 -4.738281 3.5625 -4.65625 C 3.84375 -4.582031 4.101562 -4.472656 4.34375 -4.328125 L 4.34375 -3.65625 C 4.101562 -3.851562 3.847656 -4 3.578125 -4.09375 C 3.316406 -4.195312 3.039062 -4.25 2.75 -4.25 C 2.175781 -4.25 1.742188 -4.085938 1.453125 -3.765625 C 1.171875 -3.453125 1.03125 -2.976562 1.03125 -2.34375 C 1.03125 -1.707031 1.171875 -1.226562 1.453125 -0.90625 C 1.742188 -0.59375 2.175781 -0.4375 2.75 -0.4375 C 2.976562 -0.4375 3.179688 -0.453125 3.359375 -0.484375 C 3.535156 -0.523438 3.691406 -0.585938 3.828125 -0.671875 Z M 3.828125 -0.671875 "/>
</g>
<g id="glyph-1-19">
<path d="M 3.140625 -3.390625 L 3.140625 -2.84375 C 2.972656 -2.9375 2.804688 -3.003906 2.640625 -3.046875 C 2.484375 -3.085938 2.320312 -3.109375 2.15625 -3.109375 C 1.78125 -3.109375 1.488281 -2.988281 1.28125 -2.75 C 1.070312 -2.519531 0.96875 -2.1875 0.96875 -1.75 C 0.96875 -1.320312 1.070312 -0.988281 1.28125 -0.75 C 1.488281 -0.519531 1.78125 -0.40625 2.15625 -0.40625 C 2.320312 -0.40625 2.484375 -0.425781 2.640625 -0.46875 C 2.804688 -0.507812 2.972656 -0.578125 3.140625 -0.671875 L 3.140625 -0.140625 C 2.972656 -0.0546875 2.800781 0 2.625 0.03125 C 2.457031 0.0703125 2.28125 0.09375 2.09375 0.09375 C 1.5625 0.09375 1.140625 -0.0703125 0.828125 -0.40625 C 0.515625 -0.738281 0.359375 -1.1875 0.359375 -1.75 C 0.359375 -2.332031 0.515625 -2.785156 0.828125 -3.109375 C 1.140625 -3.441406 1.570312 -3.609375 2.125 -3.609375 C 2.300781 -3.609375 2.472656 -3.585938 2.640625 -3.546875 C 2.816406 -3.515625 2.984375 -3.460938 3.140625 -3.390625 Z M 3.140625 -3.390625 "/>
</g>
<g id="glyph-1-20">
<path d="M 2.390625 -4.890625 L 2.390625 -4.40625 L 1.828125 -4.40625 C 1.628906 -4.40625 1.488281 -4.363281 1.40625 -4.28125 C 1.320312 -4.195312 1.28125 -4.046875 1.28125 -3.828125 L 1.28125 -3.515625 L 2.234375 -3.515625 L 2.234375 -3.078125 L 1.28125 -3.078125 L 1.28125 0 L 0.703125 0 L 0.703125 -3.078125 L 0.140625 -3.078125 L 0.140625 -3.515625 L 0.703125 -3.515625 L 0.703125 -3.765625 C 0.703125 -4.160156 0.789062 -4.445312 0.96875 -4.625 C 1.15625 -4.800781 1.445312 -4.890625 1.84375 -4.890625 Z M 2.390625 -4.890625 "/>
</g>
<g id="glyph-2-0">
<path d="M -4.171875 -1.265625 L -2.40625 -1.265625 L -2.40625 -2.0625 C -2.40625 -2.363281 -2.476562 -2.59375 -2.625 -2.75 C -2.78125 -2.914062 -3.003906 -3 -3.296875 -3 C -3.578125 -3 -3.789062 -2.914062 -3.9375 -2.75 C -4.09375 -2.59375 -4.171875 -2.363281 -4.171875 -2.0625 Z M -4.6875 -0.625 L -4.6875 -2.0625 C -4.6875 -2.59375 -4.566406 -2.988281 -4.328125 -3.25 C -4.097656 -3.519531 -3.753906 -3.65625 -3.296875 -3.65625 C -2.828125 -3.65625 -2.472656 -3.519531 -2.234375 -3.25 C -2.003906 -2.988281 -1.890625 -2.59375 -1.890625 -2.0625 L -1.890625 -1.265625 L 0 -1.265625 L 0 -0.625 Z M -4.6875 -0.625 "/>
</g>
<g id="glyph-2-1">
<path d="M -2.984375 -2.640625 C -3.015625 -2.578125 -3.039062 -2.503906 -3.0625 -2.421875 C -3.082031 -2.347656 -3.09375 -2.269531 -3.09375 -2.1875 C -3.09375 -1.851562 -2.984375 -1.597656 -2.765625 -1.421875 C -2.554688 -1.253906 -2.253906 -1.171875 -1.859375 -1.171875 L 0 -1.171875 L 0 -0.578125 L -3.515625 -0.578125 L -3.515625 -1.171875 L -2.96875 -1.171875 C -3.1875 -1.285156 -3.347656 -1.441406 -3.453125 -1.640625 C -3.554688 -1.835938 -3.609375 -2.070312 -3.609375 -2.34375 C -3.609375 -2.382812 -3.601562 -2.429688 -3.59375 -2.484375 C -3.59375 -2.535156 -3.585938 -2.585938 -3.578125 -2.640625 Z M -2.984375 -2.640625 "/>
</g>
<g id="glyph-2-2">
<path d="M -3.109375 -1.96875 C -3.109375 -1.65625 -2.988281 -1.410156 -2.75 -1.234375 C -2.507812 -1.054688 -2.175781 -0.96875 -1.75 -0.96875 C -1.332031 -0.96875 -1.003906 -1.054688 -0.765625 -1.234375 C -0.523438 -1.410156 -0.40625 -1.65625 -0.40625 -1.96875 C -0.40625 -2.28125 -0.523438 -2.523438 -0.765625 -2.703125 C -1.003906 -2.878906 -1.332031 -2.96875 -1.75 -2.96875 C -2.164062 -2.96875 -2.492188 -2.878906 -2.734375 -2.703125 C -2.984375 -2.523438 -3.109375 -2.28125 -3.109375 -1.96875 Z M -3.609375 -1.96875 C -3.609375 -2.46875 -3.441406 -2.863281 -3.109375 -3.15625 C -2.785156 -3.445312 -2.332031 -3.59375 -1.75 -3.59375 C -1.175781 -3.59375 -0.722656 -3.445312 -0.390625 -3.15625 C -0.0664062 -2.863281 0.09375 -2.46875 0.09375 -1.96875 C 0.09375 -1.46875 -0.0664062 -1.070312 -0.390625 -0.78125 C -0.722656 -0.5 -1.175781 -0.359375 -1.75 -0.359375 C -2.332031 -0.359375 -2.785156 -0.5 -3.109375 -0.78125 C -3.441406 -1.070312 -3.609375 -1.46875 -3.609375 -1.96875 Z M -3.609375 -1.96875 "/>
</g>
<g id="glyph-2-3">
<path d="M -0.53125 -1.171875 L 1.34375 -1.171875 L 1.34375 -0.578125 L -3.515625 -0.578125 L -3.515625 -1.171875 L -2.984375 -1.171875 C -3.191406 -1.285156 -3.347656 -1.4375 -3.453125 -1.625 C -3.554688 -1.8125 -3.609375 -2.035156 -3.609375 -2.296875 C -3.609375 -2.722656 -3.4375 -3.066406 -3.09375 -3.328125 C -2.757812 -3.597656 -2.3125 -3.734375 -1.75 -3.734375 C -1.195312 -3.734375 -0.75 -3.597656 -0.40625 -3.328125 C -0.0703125 -3.066406 0.09375 -2.722656 0.09375 -2.296875 C 0.09375 -2.035156 0.0390625 -1.8125 -0.0625 -1.625 C -0.164062 -1.4375 -0.320312 -1.285156 -0.53125 -1.171875 Z M -1.75 -3.140625 C -2.175781 -3.140625 -2.507812 -3.050781 -2.75 -2.875 C -3 -2.695312 -3.125 -2.457031 -3.125 -2.15625 C -3.125 -1.84375 -3 -1.597656 -2.75 -1.421875 C -2.507812 -1.253906 -2.175781 -1.171875 -1.75 -1.171875 C -1.332031 -1.171875 -1 -1.253906 -0.75 -1.421875 C -0.507812 -1.597656 -0.390625 -1.84375 -0.390625 -2.15625 C -0.390625 -2.457031 -0.507812 -2.695312 -0.75 -2.875 C -1 -3.050781 -1.332031 -3.140625 -1.75 -3.140625 Z M -1.75 -3.140625 "/>
</g>
<g id="glyph-2-4">
<path d="M -4.515625 -1.171875 L -3.515625 -1.171875 L -3.515625 -2.375 L -3.078125 -2.375 L -3.078125 -1.171875 L -1.15625 -1.171875 C -0.875 -1.171875 -0.691406 -1.210938 -0.609375 -1.296875 C -0.523438 -1.378906 -0.484375 -1.539062 -0.484375 -1.78125 L -0.484375 -2.375 L 0 -2.375 L 0 -1.78125 C 0 -1.332031 -0.0820312 -1.019531 -0.25 -0.84375 C -0.414062 -0.675781 -0.71875 -0.59375 -1.15625 -0.59375 L -3.078125 -0.59375 L -3.078125 -0.171875 L -3.515625 -0.171875 L -3.515625 -0.59375 L -4.515625 -0.59375 Z M -4.515625 -1.171875 "/>
</g>
<g id="glyph-2-5">
<path d="M -3.515625 -0.609375 L -3.515625 -1.1875 L 0 -1.1875 L 0 -0.609375 Z M -4.890625 -0.609375 L -4.890625 -1.1875 L -4.15625 -1.1875 L -4.15625 -0.609375 Z M -4.890625 -0.609375 "/>
</g>
<g id="glyph-2-6">
<path d="M -2.125 -3.53125 L 0 -3.53125 L 0 -2.953125 L -2.109375 -2.953125 C -2.441406 -2.953125 -2.691406 -2.882812 -2.859375 -2.75 C -3.023438 -2.625 -3.109375 -2.429688 -3.109375 -2.171875 C -3.109375 -1.859375 -3.003906 -1.613281 -2.796875 -1.4375 C -2.597656 -1.257812 -2.328125 -1.171875 -1.984375 -1.171875 L 0 -1.171875 L 0 -0.578125 L -3.515625 -0.578125 L -3.515625 -1.171875 L -2.96875 -1.171875 C -3.1875 -1.304688 -3.347656 -1.46875 -3.453125 -1.65625 C -3.554688 -1.84375 -3.609375 -2.054688 -3.609375 -2.296875 C -3.609375 -2.703125 -3.484375 -3.007812 -3.234375 -3.21875 C -2.984375 -3.425781 -2.613281 -3.53125 -2.125 -3.53125 Z M -2.125 -3.53125 "/>
</g>
<g id="glyph-2-7">
</g>
<g id="glyph-2-8">
<path d="M -4.890625 -2 C -4.398438 -1.71875 -3.921875 -1.507812 -3.453125 -1.375 C -2.984375 -1.238281 -2.503906 -1.171875 -2.015625 -1.171875 C -1.535156 -1.171875 -1.054688 -1.238281 -0.578125 -1.375 C -0.109375 -1.507812 0.363281 -1.71875 0.84375 -2 L 0.84375 -1.5 C 0.351562 -1.175781 -0.125 -0.9375 -0.59375 -0.78125 C -1.070312 -0.625 -1.546875 -0.546875 -2.015625 -0.546875 C -2.484375 -0.546875 -2.953125 -0.625 -3.421875 -0.78125 C -3.898438 -0.9375 -4.390625 -1.175781 -4.890625 -1.5 Z M -4.890625 -2 "/>
</g>
<g id="glyph-2-9">
<path d="M -2.0625 -4.6875 C -2.0625 -4.5 -1.984375 -4.351562 -1.828125 -4.25 C -1.671875 -4.144531 -1.457031 -4.09375 -1.1875 -4.09375 C -0.914062 -4.09375 -0.703125 -4.144531 -0.546875 -4.25 C -0.390625 -4.351562 -0.3125 -4.5 -0.3125 -4.6875 C -0.3125 -4.863281 -0.390625 -5.003906 -0.546875 -5.109375 C -0.703125 -5.210938 -0.914062 -5.265625 -1.1875 -5.265625 C -1.457031 -5.265625 -1.671875 -5.210938 -1.828125 -5.109375 C -1.984375 -5.003906 -2.0625 -4.863281 -2.0625 -4.6875 Z M -2.46875 -4.6875 C -2.46875 -5.007812 -2.347656 -5.269531 -2.109375 -5.46875 C -1.878906 -5.664062 -1.570312 -5.765625 -1.1875 -5.765625 C -0.789062 -5.765625 -0.476562 -5.664062 -0.25 -5.46875 C -0.0195312 -5.269531 0.09375 -5.007812 0.09375 -4.6875 C 0.09375 -4.34375 -0.0195312 -4.070312 -0.25 -3.875 C -0.476562 -3.6875 -0.789062 -3.59375 -1.1875 -3.59375 C -1.582031 -3.59375 -1.894531 -3.691406 -2.125 -3.890625 C -2.351562 -4.085938 -2.46875 -4.351562 -2.46875 -4.6875 Z M -4.375 -1.4375 C -4.375 -1.257812 -4.296875 -1.117188 -4.140625 -1.015625 C -3.984375 -0.910156 -3.769531 -0.859375 -3.5 -0.859375 C -3.226562 -0.859375 -3.015625 -0.90625 -2.859375 -1 C -2.703125 -1.101562 -2.625 -1.25 -2.625 -1.4375 C -2.625 -1.613281 -2.703125 -1.753906 -2.859375 -1.859375 C -3.015625 -1.960938 -3.226562 -2.015625 -3.5 -2.015625 C -3.769531 -2.015625 -3.984375 -1.960938 -4.140625 -1.859375 C -4.296875 -1.753906 -4.375 -1.613281 -4.375 -1.4375 Z M -4.78125 -4.28125 L -4.78125 -4.78125 L 0.09375 -1.84375 L 0.09375 -1.34375 Z M -4.78125 -1.4375 C -4.78125 -1.769531 -4.664062 -2.035156 -4.4375 -2.234375 C -4.207031 -2.429688 -3.894531 -2.53125 -3.5 -2.53125 C -3.101562 -2.53125 -2.789062 -2.429688 -2.5625 -2.234375 C -2.332031 -2.035156 -2.21875 -1.769531 -2.21875 -1.4375 C -2.21875 -1.101562 -2.332031 -0.835938 -2.5625 -0.640625 C -2.789062 -0.453125 -3.101562 -0.359375 -3.5 -0.359375 C -3.894531 -0.359375 -4.207031 -0.453125 -4.4375 -0.640625 C -4.664062 -0.835938 -4.78125 -1.101562 -4.78125 -1.4375 Z M -4.78125 -1.4375 "/>
</g>
<g id="glyph-2-10">
<path d="M -4.890625 -0.515625 L -4.890625 -1.015625 C -4.390625 -1.328125 -3.898438 -1.5625 -3.421875 -1.71875 C -2.953125 -1.875 -2.484375 -1.953125 -2.015625 -1.953125 C -1.546875 -1.953125 -1.070312 -1.875 -0.59375 -1.71875 C -0.125 -1.5625 0.351562 -1.328125 0.84375 -1.015625 L 0.84375 -0.515625 C 0.363281 -0.796875 -0.109375 -1.003906 -0.578125 -1.140625 C -1.054688 -1.273438 -1.535156 -1.34375 -2.015625 -1.34375 C -2.503906 -1.34375 -2.984375 -1.273438 -3.453125 -1.140625 C -3.921875 -1.003906 -4.398438 -0.796875 -4.890625 -0.515625 Z M -4.890625 -0.515625 "/>
</g>
<g id="glyph-2-11">
<path d="M -4.328125 -4.140625 L -3.65625 -4.140625 C -3.851562 -3.929688 -4 -3.703125 -4.09375 -3.453125 C -4.195312 -3.210938 -4.25 -2.957031 -4.25 -2.6875 C -4.25 -2.15625 -4.082031 -1.742188 -3.75 -1.453125 C -3.425781 -1.171875 -2.957031 -1.03125 -2.34375 -1.03125 C -1.726562 -1.03125 -1.253906 -1.171875 -0.921875 -1.453125 C -0.597656 -1.742188 -0.4375 -2.15625 -0.4375 -2.6875 C -0.4375 -2.957031 -0.484375 -3.210938 -0.578125 -3.453125 C -0.671875 -3.703125 -0.820312 -3.929688 -1.03125 -4.140625 L -0.359375 -4.140625 C -0.210938 -3.921875 -0.0976562 -3.6875 -0.015625 -3.4375 C 0.0546875 -3.1875 0.09375 -2.925781 0.09375 -2.65625 C 0.09375 -1.945312 -0.125 -1.382812 -0.5625 -0.96875 C -1 -0.5625 -1.59375 -0.359375 -2.34375 -0.359375 C -3.09375 -0.359375 -3.6875 -0.5625 -4.125 -0.96875 C -4.5625 -1.382812 -4.78125 -1.945312 -4.78125 -2.65625 C -4.78125 -2.9375 -4.738281 -3.195312 -4.65625 -3.4375 C -4.582031 -3.6875 -4.472656 -3.921875 -4.328125 -4.140625 Z M -4.328125 -4.140625 "/>
</g>
<g id="glyph-2-12">
<path d="M -4.0625 -2.203125 L -1.734375 -1.34375 L -1.734375 -3.0625 Z M -4.6875 -1.84375 L -4.6875 -2.5625 L 0 -4.34375 L 0 -3.6875 L -1.203125 -3.265625 L -1.203125 -1.140625 L 0 -0.71875 L 0 -0.046875 Z M -4.6875 -1.84375 "/>
</g>
<g id="glyph-2-13">
<path d="M -2.203125 -2.859375 C -2.148438 -2.992188 -2.046875 -3.125 -1.890625 -3.25 C -1.742188 -3.382812 -1.539062 -3.515625 -1.28125 -3.640625 L 0 -4.28125 L 0 -3.609375 L -1.203125 -3 C -1.515625 -2.84375 -1.722656 -2.691406 -1.828125 -2.546875 C -1.929688 -2.398438 -1.984375 -2.203125 -1.984375 -1.953125 L -1.984375 -1.265625 L 0 -1.265625 L 0 -0.625 L -4.6875 -0.625 L -4.6875 -2.0625 C -4.6875 -2.601562 -4.570312 -3.003906 -4.34375 -3.265625 C -4.125 -3.523438 -3.789062 -3.65625 -3.34375 -3.65625 C -3.039062 -3.65625 -2.789062 -3.585938 -2.59375 -3.453125 C -2.40625 -3.316406 -2.273438 -3.117188 -2.203125 -2.859375 Z M -4.171875 -1.265625 L -2.5 -1.265625 L -2.5 -2.0625 C -2.5 -2.375 -2.566406 -2.609375 -2.703125 -2.765625 C -2.847656 -2.921875 -3.0625 -3 -3.34375 -3 C -3.613281 -3 -3.816406 -2.921875 -3.953125 -2.765625 C -4.097656 -2.609375 -4.171875 -2.375 -4.171875 -2.0625 Z M -4.171875 -1.265625 "/>
</g>
<g id="glyph-2-14">
<path d="M -4.53125 -3.4375 L -3.921875 -3.4375 C -4.035156 -3.195312 -4.117188 -2.96875 -4.171875 -2.75 C -4.234375 -2.539062 -4.265625 -2.335938 -4.265625 -2.140625 C -4.265625 -1.796875 -4.195312 -1.53125 -4.0625 -1.34375 C -3.925781 -1.15625 -3.734375 -1.0625 -3.484375 -1.0625 C -3.273438 -1.0625 -3.117188 -1.125 -3.015625 -1.25 C -2.910156 -1.375 -2.828125 -1.609375 -2.765625 -1.953125 L -2.6875 -2.34375 C -2.59375 -2.8125 -2.429688 -3.160156 -2.203125 -3.390625 C -1.972656 -3.617188 -1.671875 -3.734375 -1.296875 -3.734375 C -0.835938 -3.734375 -0.488281 -3.578125 -0.25 -3.265625 C -0.0195312 -2.960938 0.09375 -2.519531 0.09375 -1.9375 C 0.09375 -1.707031 0.0664062 -1.46875 0.015625 -1.21875 C -0.0351562 -0.96875 -0.109375 -0.707031 -0.203125 -0.4375 L -0.859375 -0.4375 C -0.710938 -0.695312 -0.601562 -0.953125 -0.53125 -1.203125 C -0.457031 -1.453125 -0.421875 -1.695312 -0.421875 -1.9375 C -0.421875 -2.289062 -0.492188 -2.566406 -0.640625 -2.765625 C -0.785156 -2.960938 -0.988281 -3.0625 -1.25 -3.0625 C -1.476562 -3.0625 -1.65625 -2.988281 -1.78125 -2.84375 C -1.914062 -2.707031 -2.015625 -2.476562 -2.078125 -2.15625 L -2.15625 -1.765625 C -2.25 -1.296875 -2.394531 -0.953125 -2.59375 -0.734375 C -2.800781 -0.523438 -3.082031 -0.421875 -3.4375 -0.421875 C -3.851562 -0.421875 -4.179688 -0.566406 -4.421875 -0.859375 C -4.660156 -1.148438 -4.78125 -1.554688 -4.78125 -2.078125 C -4.78125 -2.296875 -4.757812 -2.519531 -4.71875 -2.75 C -4.675781 -2.976562 -4.613281 -3.207031 -4.53125 -3.4375 Z M -4.53125 -3.4375 "/>
</g>
<g id="glyph-2-15">
<path d="M -1.796875 -2.921875 C -2.222656 -2.921875 -2.550781 -2.832031 -2.78125 -2.65625 C -3.007812 -2.488281 -3.125 -2.25 -3.125 -1.9375 C -3.125 -1.625 -3.007812 -1.378906 -2.78125 -1.203125 C -2.550781 -1.035156 -2.222656 -0.953125 -1.796875 -0.953125 C -1.378906 -0.953125 -1.054688 -1.035156 -0.828125 -1.203125 C -0.597656 -1.378906 -0.484375 -1.625 -0.484375 -1.9375 C -0.484375 -2.25 -0.597656 -2.488281 -0.828125 -2.65625 C -1.054688 -2.832031 -1.378906 -2.921875 -1.796875 -2.921875 Z M -0.4375 -3.5 C 0.164062 -3.5 0.613281 -3.363281 0.90625 -3.09375 C 1.195312 -2.832031 1.34375 -2.425781 1.34375 -1.875 C 1.34375 -1.675781 1.328125 -1.484375 1.296875 -1.296875 C 1.265625 -1.117188 1.21875 -0.945312 1.15625 -0.78125 L 0.59375 -0.78125 C 0.6875 -0.945312 0.753906 -1.113281 0.796875 -1.28125 C 0.835938 -1.445312 0.859375 -1.613281 0.859375 -1.78125 C 0.859375 -2.164062 0.757812 -2.453125 0.5625 -2.640625 C 0.363281 -2.828125 0.0664062 -2.921875 -0.328125 -2.921875 L -0.625 -2.921875 C -0.414062 -2.804688 -0.257812 -2.65625 -0.15625 -2.46875 C -0.0507812 -2.28125 0 -2.054688 0 -1.796875 C 0 -1.359375 -0.160156 -1.007812 -0.484375 -0.75 C -0.816406 -0.488281 -1.253906 -0.359375 -1.796875 -0.359375 C -2.347656 -0.359375 -2.785156 -0.488281 -3.109375 -0.75 C -3.441406 -1.007812 -3.609375 -1.359375 -3.609375 -1.796875 C -3.609375 -2.054688 -3.554688 -2.28125 -3.453125 -2.46875 C -3.347656 -2.65625 -3.191406 -2.804688 -2.984375 -2.921875 L -3.515625 -2.921875 L -3.515625 -3.5 Z M -0.4375 -3.5 "/>
</g>
<g id="glyph-2-16">
<path d="M -4.890625 -0.609375 L -4.890625 -1.1875 L 0 -1.1875 L 0 -0.609375 Z M -4.890625 -0.609375 "/>
</g>
<g id="glyph-2-17">
<path d="M -1.90625 -3.625 L -1.625 -3.625 L -1.625 -0.953125 C -1.226562 -0.984375 -0.925781 -1.101562 -0.71875 -1.3125 C -0.507812 -1.53125 -0.40625 -1.832031 -0.40625 -2.21875 C -0.40625 -2.4375 -0.429688 -2.648438 -0.484375 -2.859375 C -0.535156 -3.066406 -0.613281 -3.273438 -0.71875 -3.484375 L -0.171875 -3.484375 C -0.0859375 -3.273438 -0.0234375 -3.0625 0.015625 -2.84375 C 0.0664062 -2.625 0.09375 -2.40625 0.09375 -2.1875 C 0.09375 -1.625 -0.0664062 -1.175781 -0.390625 -0.84375 C -0.722656 -0.519531 -1.164062 -0.359375 -1.71875 -0.359375 C -2.300781 -0.359375 -2.757812 -0.507812 -3.09375 -0.8125 C -3.4375 -1.125 -3.609375 -1.546875 -3.609375 -2.078125 C -3.609375 -2.554688 -3.453125 -2.929688 -3.140625 -3.203125 C -2.835938 -3.484375 -2.425781 -3.625 -1.90625 -3.625 Z M -2.078125 -3.046875 C -2.390625 -3.035156 -2.640625 -2.941406 -2.828125 -2.765625 C -3.015625 -2.597656 -3.109375 -2.375 -3.109375 -2.09375 C -3.109375 -1.769531 -3.015625 -1.507812 -2.828125 -1.3125 C -2.648438 -1.113281 -2.398438 -1.003906 -2.078125 -0.984375 Z M -2.078125 -3.046875 "/>
</g>
<g id="glyph-3-0">
<path d="M 1.578125 -0.75 L 3.328125 -0.75 L 3.328125 0 L 0.4375 0 L 0.4375 -0.75 L 1.875 -2.03125 C 2.007812 -2.144531 2.109375 -2.257812 2.171875 -2.375 C 2.234375 -2.488281 2.265625 -2.609375 2.265625 -2.734375 C 2.265625 -2.910156 2.203125 -3.054688 2.078125 -3.171875 C 1.953125 -3.285156 1.785156 -3.34375 1.578125 -3.34375 C 1.421875 -3.34375 1.242188 -3.304688 1.046875 -3.234375 C 0.859375 -3.171875 0.65625 -3.070312 0.4375 -2.9375 L 0.4375 -3.8125 C 0.664062 -3.882812 0.894531 -3.941406 1.125 -3.984375 C 1.351562 -4.023438 1.578125 -4.046875 1.796875 -4.046875 C 2.265625 -4.046875 2.628906 -3.941406 2.890625 -3.734375 C 3.160156 -3.523438 3.296875 -3.234375 3.296875 -2.859375 C 3.296875 -2.640625 3.238281 -2.4375 3.125 -2.25 C 3.007812 -2.0625 2.773438 -1.8125 2.421875 -1.5 Z M 1.578125 -0.75 "/>
</g>
<g id="glyph-3-1">
<path d="M 0.359375 -3.96875 L 3.359375 -3.96875 L 3.359375 -3.390625 L 1.8125 0 L 0.8125 0 L 2.28125 -3.21875 L 0.359375 -3.21875 Z M 0.359375 -3.96875 "/>
</g>
<g id="glyph-3-2">
<path d="M 4.21875 -1.640625 C 4.09375 -1.640625 3.992188 -1.582031 3.921875 -1.46875 C 3.859375 -1.363281 3.828125 -1.210938 3.828125 -1.015625 C 3.828125 -0.804688 3.859375 -0.644531 3.921875 -0.53125 C 3.992188 -0.425781 4.09375 -0.375 4.21875 -0.375 C 4.351562 -0.375 4.453125 -0.425781 4.515625 -0.53125 C 4.585938 -0.644531 4.625 -0.804688 4.625 -1.015625 C 4.625 -1.210938 4.585938 -1.363281 4.515625 -1.46875 C 4.453125 -1.582031 4.351562 -1.640625 4.21875 -1.640625 Z M 4.21875 -2.09375 C 4.550781 -2.09375 4.8125 -1.992188 5 -1.796875 C 5.195312 -1.609375 5.296875 -1.347656 5.296875 -1.015625 C 5.296875 -0.671875 5.195312 -0.398438 5 -0.203125 C 4.8125 -0.015625 4.550781 0.078125 4.21875 0.078125 C 3.894531 0.078125 3.632812 -0.015625 3.4375 -0.203125 C 3.25 -0.398438 3.15625 -0.671875 3.15625 -1.015625 C 3.15625 -1.347656 3.25 -1.609375 3.4375 -1.796875 C 3.632812 -1.992188 3.894531 -2.09375 4.21875 -2.09375 Z M 1.78125 0.078125 L 1.203125 0.078125 L 3.6875 -4.046875 L 4.265625 -4.046875 Z M 1.234375 -4.046875 C 1.566406 -4.046875 1.828125 -3.945312 2.015625 -3.75 C 2.203125 -3.5625 2.296875 -3.300781 2.296875 -2.96875 C 2.296875 -2.632812 2.203125 -2.367188 2.015625 -2.171875 C 1.828125 -1.972656 1.566406 -1.875 1.234375 -1.875 C 0.910156 -1.875 0.648438 -1.972656 0.453125 -2.171875 C 0.265625 -2.367188 0.171875 -2.632812 0.171875 -2.96875 C 0.171875 -3.300781 0.265625 -3.5625 0.453125 -3.75 C 0.648438 -3.945312 0.910156 -4.046875 1.234375 -4.046875 Z M 1.234375 -3.59375 C 1.109375 -3.59375 1.007812 -3.535156 0.9375 -3.421875 C 0.875 -3.316406 0.84375 -3.164062 0.84375 -2.96875 C 0.84375 -2.757812 0.875 -2.597656 0.9375 -2.484375 C 1.007812 -2.378906 1.109375 -2.328125 1.234375 -2.328125 C 1.367188 -2.328125 1.46875 -2.378906 1.53125 -2.484375 C 1.601562 -2.597656 1.640625 -2.757812 1.640625 -2.96875 C 1.640625 -3.164062 1.601562 -3.316406 1.53125 -3.421875 C 1.457031 -3.535156 1.359375 -3.59375 1.234375 -3.59375 Z M 1.234375 -3.59375 "/>
</g>
<g id="glyph-3-3">
<path d="M 2.546875 -2.140625 C 2.804688 -2.078125 3.003906 -1.957031 3.140625 -1.78125 C 3.285156 -1.613281 3.359375 -1.394531 3.359375 -1.125 C 3.359375 -0.726562 3.207031 -0.425781 2.90625 -0.21875 C 2.601562 -0.0195312 2.164062 0.078125 1.59375 0.078125 C 1.382812 0.078125 1.175781 0.0625 0.96875 0.03125 C 0.769531 0 0.566406 -0.0507812 0.359375 -0.125 L 0.359375 -0.90625 C 0.554688 -0.8125 0.75 -0.738281 0.9375 -0.6875 C 1.125 -0.644531 1.3125 -0.625 1.5 -0.625 C 1.769531 -0.625 1.972656 -0.671875 2.109375 -0.765625 C 2.253906 -0.859375 2.328125 -0.992188 2.328125 -1.171875 C 2.328125 -1.347656 2.253906 -1.484375 2.109375 -1.578125 C 1.960938 -1.671875 1.742188 -1.71875 1.453125 -1.71875 L 1.046875 -1.71875 L 1.046875 -2.375 L 1.484375 -2.375 C 1.734375 -2.375 1.921875 -2.414062 2.046875 -2.5 C 2.171875 -2.582031 2.234375 -2.707031 2.234375 -2.875 C 2.234375 -3.019531 2.171875 -3.132812 2.046875 -3.21875 C 1.929688 -3.300781 1.757812 -3.34375 1.53125 -3.34375 C 1.375 -3.34375 1.207031 -3.320312 1.03125 -3.28125 C 0.863281 -3.25 0.695312 -3.195312 0.53125 -3.125 L 0.53125 -3.875 C 0.738281 -3.9375 0.941406 -3.976562 1.140625 -4 C 1.335938 -4.03125 1.53125 -4.046875 1.71875 -4.046875 C 2.238281 -4.046875 2.625 -3.957031 2.875 -3.78125 C 3.132812 -3.613281 3.265625 -3.363281 3.265625 -3.03125 C 3.265625 -2.789062 3.203125 -2.597656 3.078125 -2.453125 C 2.960938 -2.304688 2.785156 -2.203125 2.546875 -2.140625 Z M 2.546875 -2.140625 "/>
</g>
<g id="glyph-3-4">
<path d="M 2 -3.125 L 0.890625 -1.46875 L 2 -1.46875 Z M 1.84375 -3.96875 L 2.984375 -3.96875 L 2.984375 -1.46875 L 3.546875 -1.46875 L 3.546875 -0.71875 L 2.984375 -0.71875 L 2.984375 0 L 2 0 L 2 -0.71875 L 0.25 -0.71875 L 0.25 -1.609375 Z M 1.84375 -3.96875 "/>
</g>
<g id="glyph-3-5">
<path d="M 0.546875 -0.09375 L 0.546875 -0.828125 C 0.710938 -0.742188 0.867188 -0.679688 1.015625 -0.640625 C 1.160156 -0.609375 1.304688 -0.59375 1.453125 -0.59375 C 1.765625 -0.59375 2.003906 -0.675781 2.171875 -0.84375 C 2.335938 -1.019531 2.4375 -1.273438 2.46875 -1.609375 C 2.351562 -1.515625 2.222656 -1.445312 2.078125 -1.40625 C 1.941406 -1.363281 1.796875 -1.34375 1.640625 -1.34375 C 1.234375 -1.34375 0.90625 -1.457031 0.65625 -1.6875 C 0.40625 -1.925781 0.28125 -2.238281 0.28125 -2.625 C 0.28125 -3.050781 0.414062 -3.394531 0.6875 -3.65625 C 0.96875 -3.914062 1.34375 -4.046875 1.8125 -4.046875 C 2.332031 -4.046875 2.734375 -3.867188 3.015625 -3.515625 C 3.304688 -3.171875 3.453125 -2.675781 3.453125 -2.03125 C 3.453125 -1.375 3.285156 -0.859375 2.953125 -0.484375 C 2.617188 -0.109375 2.160156 0.078125 1.578125 0.078125 C 1.390625 0.078125 1.210938 0.0625 1.046875 0.03125 C 0.878906 0.0078125 0.710938 -0.03125 0.546875 -0.09375 Z M 1.8125 -2 C 1.988281 -2 2.117188 -2.054688 2.203125 -2.171875 C 2.296875 -2.285156 2.34375 -2.460938 2.34375 -2.703125 C 2.34375 -2.929688 2.296875 -3.101562 2.203125 -3.21875 C 2.117188 -3.332031 1.988281 -3.390625 1.8125 -3.390625 C 1.632812 -3.390625 1.5 -3.332031 1.40625 -3.21875 C 1.3125 -3.101562 1.265625 -2.929688 1.265625 -2.703125 C 1.265625 -2.460938 1.3125 -2.285156 1.40625 -2.171875 C 1.5 -2.054688 1.632812 -2 1.8125 -2 Z M 1.8125 -2 "/>
</g>
<g id="glyph-3-6">
<path d="M 1.90625 -1.78125 C 1.707031 -1.78125 1.554688 -1.726562 1.453125 -1.625 C 1.347656 -1.519531 1.296875 -1.367188 1.296875 -1.171875 C 1.296875 -0.972656 1.347656 -0.820312 1.453125 -0.71875 C 1.554688 -0.613281 1.707031 -0.5625 1.90625 -0.5625 C 2.09375 -0.5625 2.234375 -0.613281 2.328125 -0.71875 C 2.429688 -0.820312 2.484375 -0.972656 2.484375 -1.171875 C 2.484375 -1.367188 2.429688 -1.519531 2.328125 -1.625 C 2.234375 -1.726562 2.09375 -1.78125 1.90625 -1.78125 Z M 1.15625 -2.109375 C 0.90625 -2.179688 0.71875 -2.289062 0.59375 -2.4375 C 0.476562 -2.59375 0.421875 -2.785156 0.421875 -3.015625 C 0.421875 -3.347656 0.546875 -3.601562 0.796875 -3.78125 C 1.046875 -3.957031 1.414062 -4.046875 1.90625 -4.046875 C 2.382812 -4.046875 2.75 -3.957031 3 -3.78125 C 3.25 -3.601562 3.375 -3.347656 3.375 -3.015625 C 3.375 -2.785156 3.3125 -2.59375 3.1875 -2.4375 C 3.0625 -2.289062 2.878906 -2.179688 2.640625 -2.109375 C 2.910156 -2.035156 3.113281 -1.914062 3.25 -1.75 C 3.382812 -1.582031 3.453125 -1.375 3.453125 -1.125 C 3.453125 -0.726562 3.320312 -0.425781 3.0625 -0.21875 C 2.800781 -0.0195312 2.414062 0.078125 1.90625 0.078125 C 1.382812 0.078125 0.988281 -0.0195312 0.71875 -0.21875 C 0.457031 -0.425781 0.328125 -0.726562 0.328125 -1.125 C 0.328125 -1.375 0.394531 -1.582031 0.53125 -1.75 C 0.675781 -1.914062 0.882812 -2.035156 1.15625 -2.109375 Z M 1.390625 -2.90625 C 1.390625 -2.75 1.429688 -2.628906 1.515625 -2.546875 C 1.609375 -2.460938 1.738281 -2.421875 1.90625 -2.421875 C 2.0625 -2.421875 2.179688 -2.460938 2.265625 -2.546875 C 2.359375 -2.628906 2.40625 -2.75 2.40625 -2.90625 C 2.40625 -3.070312 2.359375 -3.195312 2.265625 -3.28125 C 2.179688 -3.363281 2.0625 -3.40625 1.90625 -3.40625 C 1.738281 -3.40625 1.609375 -3.359375 1.515625 -3.265625 C 1.429688 -3.179688 1.390625 -3.0625 1.390625 -2.90625 Z M 1.390625 -2.90625 "/>
</g>
<g id="glyph-4-0">
<path d="M 2.65625 -3.5 L 2.65625 -3.015625 C 2.46875 -3.109375 2.289062 -3.175781 2.125 -3.21875 C 1.957031 -3.257812 1.800781 -3.28125 1.65625 -3.28125 C 1.382812 -3.28125 1.175781 -3.226562 1.03125 -3.125 C 0.882812 -3.019531 0.8125 -2.875 0.8125 -2.6875 C 0.8125 -2.519531 0.859375 -2.394531 0.953125 -2.3125 C 1.054688 -2.238281 1.238281 -2.175781 1.5 -2.125 L 1.796875 -2.0625 C 2.160156 -2 2.429688 -1.878906 2.609375 -1.703125 C 2.785156 -1.523438 2.875 -1.289062 2.875 -1 C 2.875 -0.644531 2.753906 -0.378906 2.515625 -0.203125 C 2.285156 -0.0234375 1.941406 0.0625 1.484375 0.0625 C 1.316406 0.0625 1.132812 0.0390625 0.9375 0 C 0.75 -0.03125 0.550781 -0.0820312 0.34375 -0.15625 L 0.34375 -0.65625 C 0.539062 -0.550781 0.734375 -0.46875 0.921875 -0.40625 C 1.109375 -0.351562 1.296875 -0.328125 1.484375 -0.328125 C 1.765625 -0.328125 1.976562 -0.378906 2.125 -0.484375 C 2.28125 -0.597656 2.359375 -0.753906 2.359375 -0.953125 C 2.359375 -1.128906 2.300781 -1.269531 2.1875 -1.375 C 2.082031 -1.476562 1.90625 -1.550781 1.65625 -1.59375 L 1.359375 -1.65625 C 0.992188 -1.726562 0.726562 -1.84375 0.5625 -2 C 0.40625 -2.15625 0.328125 -2.367188 0.328125 -2.640625 C 0.328125 -2.960938 0.4375 -3.210938 0.65625 -3.390625 C 0.882812 -3.578125 1.195312 -3.671875 1.59375 -3.671875 C 1.757812 -3.671875 1.929688 -3.65625 2.109375 -3.625 C 2.285156 -3.59375 2.46875 -3.550781 2.65625 -3.5 Z M 2.65625 -3.5 "/>
</g>
<g id="glyph-4-1">
<path d="M 0.421875 -1.0625 L 0.421875 -2.703125 L 0.859375 -2.703125 L 0.859375 -1.078125 C 0.859375 -0.828125 0.910156 -0.632812 1.015625 -0.5 C 1.117188 -0.375 1.269531 -0.3125 1.46875 -0.3125 C 1.707031 -0.3125 1.894531 -0.390625 2.03125 -0.546875 C 2.175781 -0.703125 2.25 -0.910156 2.25 -1.171875 L 2.25 -2.703125 L 2.6875 -2.703125 L 2.6875 0 L 2.25 0 L 2.25 -0.421875 C 2.132812 -0.253906 2.003906 -0.128906 1.859375 -0.046875 C 1.722656 0.0234375 1.5625 0.0625 1.375 0.0625 C 1.0625 0.0625 0.820312 -0.03125 0.65625 -0.21875 C 0.5 -0.414062 0.421875 -0.695312 0.421875 -1.0625 Z M 1.546875 -2.78125 Z M 1.546875 -2.78125 "/>
</g>
<g id="glyph-4-2">
<path d="M 2.421875 -2.609375 L 2.421875 -2.1875 C 2.296875 -2.257812 2.164062 -2.3125 2.03125 -2.34375 C 1.90625 -2.375 1.78125 -2.390625 1.65625 -2.390625 C 1.363281 -2.390625 1.140625 -2.296875 0.984375 -2.109375 C 0.828125 -1.929688 0.75 -1.679688 0.75 -1.359375 C 0.75 -1.023438 0.828125 -0.765625 0.984375 -0.578125 C 1.140625 -0.398438 1.363281 -0.3125 1.65625 -0.3125 C 1.78125 -0.3125 1.90625 -0.328125 2.03125 -0.359375 C 2.164062 -0.390625 2.296875 -0.441406 2.421875 -0.515625 L 2.421875 -0.109375 C 2.296875 -0.046875 2.164062 -0.00390625 2.03125 0.015625 C 1.894531 0.046875 1.753906 0.0625 1.609375 0.0625 C 1.203125 0.0625 0.875 -0.0625 0.625 -0.3125 C 0.382812 -0.570312 0.265625 -0.921875 0.265625 -1.359375 C 0.265625 -1.796875 0.382812 -2.140625 0.625 -2.390625 C 0.875 -2.648438 1.210938 -2.78125 1.640625 -2.78125 C 1.773438 -2.78125 1.90625 -2.765625 2.03125 -2.734375 C 2.164062 -2.703125 2.296875 -2.660156 2.421875 -2.609375 Z M 2.421875 -2.609375 "/>
</g>
<g id="glyph-4-3">
<path d="M 2.78125 -1.46875 L 2.78125 -1.25 L 0.734375 -1.25 C 0.753906 -0.9375 0.847656 -0.703125 1.015625 -0.546875 C 1.179688 -0.390625 1.410156 -0.3125 1.703125 -0.3125 C 1.878906 -0.3125 2.046875 -0.332031 2.203125 -0.375 C 2.359375 -0.414062 2.519531 -0.476562 2.6875 -0.5625 L 2.6875 -0.140625 C 2.519531 -0.0664062 2.351562 -0.0117188 2.1875 0.015625 C 2.019531 0.046875 1.847656 0.0625 1.671875 0.0625 C 1.242188 0.0625 0.898438 -0.0625 0.640625 -0.3125 C 0.390625 -0.5625 0.265625 -0.898438 0.265625 -1.328125 C 0.265625 -1.773438 0.382812 -2.128906 0.625 -2.390625 C 0.863281 -2.648438 1.1875 -2.78125 1.59375 -2.78125 C 1.957031 -2.78125 2.242188 -2.660156 2.453125 -2.421875 C 2.671875 -2.179688 2.78125 -1.863281 2.78125 -1.46875 Z M 2.34375 -1.59375 C 2.332031 -1.84375 2.257812 -2.035156 2.125 -2.171875 C 2 -2.316406 1.828125 -2.390625 1.609375 -2.390625 C 1.359375 -2.390625 1.15625 -2.316406 1 -2.171875 C 0.851562 -2.035156 0.769531 -1.84375 0.75 -1.59375 Z M 2.34375 -1.59375 "/>
</g>
<g id="glyph-4-4">
<path d="M 2.1875 -2.625 L 2.1875 -2.203125 C 2.0625 -2.273438 1.929688 -2.328125 1.796875 -2.359375 C 1.660156 -2.390625 1.519531 -2.40625 1.375 -2.40625 C 1.15625 -2.40625 0.988281 -2.367188 0.875 -2.296875 C 0.769531 -2.234375 0.71875 -2.132812 0.71875 -2 C 0.71875 -1.894531 0.753906 -1.8125 0.828125 -1.75 C 0.910156 -1.6875 1.070312 -1.628906 1.3125 -1.578125 L 1.46875 -1.546875 C 1.78125 -1.484375 2.003906 -1.390625 2.140625 -1.265625 C 2.273438 -1.140625 2.34375 -0.96875 2.34375 -0.75 C 2.34375 -0.5 2.238281 -0.300781 2.03125 -0.15625 C 1.832031 -0.0078125 1.5625 0.0625 1.21875 0.0625 C 1.070312 0.0625 0.921875 0.046875 0.765625 0.015625 C 0.609375 -0.00390625 0.441406 -0.0390625 0.265625 -0.09375 L 0.265625 -0.5625 C 0.429688 -0.476562 0.59375 -0.410156 0.75 -0.359375 C 0.914062 -0.316406 1.078125 -0.296875 1.234375 -0.296875 C 1.441406 -0.296875 1.597656 -0.332031 1.703125 -0.40625 C 1.816406 -0.476562 1.875 -0.582031 1.875 -0.71875 C 1.875 -0.832031 1.832031 -0.921875 1.75 -0.984375 C 1.675781 -1.054688 1.5 -1.117188 1.21875 -1.171875 L 1.0625 -1.21875 C 0.789062 -1.269531 0.59375 -1.351562 0.46875 -1.46875 C 0.34375 -1.59375 0.28125 -1.757812 0.28125 -1.96875 C 0.28125 -2.226562 0.367188 -2.425781 0.546875 -2.5625 C 0.734375 -2.707031 0.992188 -2.78125 1.328125 -2.78125 C 1.492188 -2.78125 1.648438 -2.765625 1.796875 -2.734375 C 1.941406 -2.710938 2.070312 -2.675781 2.1875 -2.625 Z M 2.1875 -2.625 "/>
</g>
<g id="glyph-4-5">
<path d="M 0.96875 -3.203125 L 0.96875 -1.859375 L 1.59375 -1.859375 C 1.820312 -1.859375 1.992188 -1.914062 2.109375 -2.03125 C 2.234375 -2.144531 2.296875 -2.3125 2.296875 -2.53125 C 2.296875 -2.75 2.234375 -2.914062 2.109375 -3.03125 C 1.992188 -3.144531 1.820312 -3.203125 1.59375 -3.203125 Z M 0.484375 -3.609375 L 1.59375 -3.609375 C 2 -3.609375 2.300781 -3.515625 2.5 -3.328125 C 2.707031 -3.148438 2.8125 -2.882812 2.8125 -2.53125 C 2.8125 -2.175781 2.707031 -1.90625 2.5 -1.71875 C 2.300781 -1.539062 2 -1.453125 1.59375 -1.453125 L 0.96875 -1.453125 L 0.96875 0 L 0.484375 0 Z M 0.484375 -3.609375 "/>
</g>
<g id="glyph-4-6">
<path d="M 1.703125 -1.359375 C 1.335938 -1.359375 1.085938 -1.316406 0.953125 -1.234375 C 0.816406 -1.148438 0.75 -1.007812 0.75 -0.8125 C 0.75 -0.65625 0.796875 -0.53125 0.890625 -0.4375 C 0.992188 -0.34375 1.140625 -0.296875 1.328125 -0.296875 C 1.566406 -0.296875 1.757812 -0.382812 1.90625 -0.5625 C 2.0625 -0.738281 2.140625 -0.972656 2.140625 -1.265625 L 2.140625 -1.359375 Z M 2.578125 -1.546875 L 2.578125 0 L 2.140625 0 L 2.140625 -0.40625 C 2.035156 -0.25 1.90625 -0.128906 1.75 -0.046875 C 1.601562 0.0234375 1.421875 0.0625 1.203125 0.0625 C 0.921875 0.0625 0.695312 -0.0078125 0.53125 -0.15625 C 0.375 -0.3125 0.296875 -0.519531 0.296875 -0.78125 C 0.296875 -1.09375 0.394531 -1.320312 0.59375 -1.46875 C 0.800781 -1.625 1.109375 -1.703125 1.515625 -1.703125 L 2.140625 -1.703125 L 2.140625 -1.75 C 2.140625 -1.957031 2.070312 -2.113281 1.9375 -2.21875 C 1.800781 -2.332031 1.613281 -2.390625 1.375 -2.390625 C 1.21875 -2.390625 1.066406 -2.367188 0.921875 -2.328125 C 0.773438 -2.296875 0.632812 -2.242188 0.5 -2.171875 L 0.5 -2.578125 C 0.65625 -2.648438 0.8125 -2.703125 0.96875 -2.734375 C 1.125 -2.765625 1.273438 -2.78125 1.421875 -2.78125 C 1.804688 -2.78125 2.09375 -2.675781 2.28125 -2.46875 C 2.476562 -2.269531 2.578125 -1.960938 2.578125 -1.546875 Z M 2.578125 -1.546875 "/>
</g>
<g id="glyph-4-7">
<path d="M 2.03125 -2.296875 C 1.988281 -2.328125 1.9375 -2.347656 1.875 -2.359375 C 1.8125 -2.367188 1.742188 -2.375 1.671875 -2.375 C 1.421875 -2.375 1.226562 -2.289062 1.09375 -2.125 C 0.957031 -1.96875 0.890625 -1.734375 0.890625 -1.421875 L 0.890625 0 L 0.453125 0 L 0.453125 -2.703125 L 0.890625 -2.703125 L 0.890625 -2.28125 C 0.984375 -2.445312 1.101562 -2.570312 1.25 -2.65625 C 1.40625 -2.738281 1.59375 -2.78125 1.8125 -2.78125 C 1.84375 -2.78125 1.875 -2.773438 1.90625 -2.765625 C 1.945312 -2.765625 1.988281 -2.757812 2.03125 -2.75 Z M 2.03125 -2.296875 "/>
</g>
<g id="glyph-4-8">
<path d="M 0.90625 -3.484375 L 0.90625 -2.703125 L 1.828125 -2.703125 L 1.828125 -2.359375 L 0.90625 -2.359375 L 0.90625 -0.890625 C 0.90625 -0.671875 0.9375 -0.53125 1 -0.46875 C 1.0625 -0.40625 1.179688 -0.375 1.359375 -0.375 L 1.828125 -0.375 L 1.828125 0 L 1.359375 0 C 1.015625 0 0.773438 -0.0625 0.640625 -0.1875 C 0.515625 -0.320312 0.453125 -0.554688 0.453125 -0.890625 L 0.453125 -2.359375 L 0.140625 -2.359375 L 0.140625 -2.703125 L 0.453125 -2.703125 L 0.453125 -3.484375 Z M 0.90625 -3.484375 "/>
</g>
<g id="glyph-4-9">
<path d="M 0.46875 -2.703125 L 0.90625 -2.703125 L 0.90625 0 L 0.46875 0 Z M 0.46875 -3.765625 L 0.90625 -3.765625 L 0.90625 -3.203125 L 0.46875 -3.203125 Z M 0.46875 -3.765625 "/>
</g>
<g id="glyph-4-10">
<path d="M 0.46875 -3.765625 L 0.90625 -3.765625 L 0.90625 0 L 0.46875 0 Z M 0.46875 -3.765625 "/>
</g>
<g id="glyph-4-11">
<path d="M 0.484375 -3.609375 L 2.5625 -3.609375 L 2.5625 -3.203125 L 0.96875 -3.203125 L 0.96875 -2.140625 L 2.40625 -2.140625 L 2.40625 -1.71875 L 0.96875 -1.71875 L 0.96875 0 L 0.484375 0 Z M 0.484375 -3.609375 "/>
</g>
<g id="glyph-4-12">
<path d="M 3.1875 -3.328125 L 3.1875 -2.8125 C 3.019531 -2.96875 2.84375 -3.082031 2.65625 -3.15625 C 2.476562 -3.238281 2.28125 -3.28125 2.0625 -3.28125 C 1.65625 -3.28125 1.34375 -3.148438 1.125 -2.890625 C 0.90625 -2.640625 0.796875 -2.273438 0.796875 -1.796875 C 0.796875 -1.328125 0.90625 -0.960938 1.125 -0.703125 C 1.34375 -0.453125 1.65625 -0.328125 2.0625 -0.328125 C 2.28125 -0.328125 2.476562 -0.363281 2.65625 -0.4375 C 2.84375 -0.519531 3.019531 -0.632812 3.1875 -0.78125 L 3.1875 -0.28125 C 3.019531 -0.164062 2.835938 -0.078125 2.640625 -0.015625 C 2.453125 0.0351562 2.253906 0.0625 2.046875 0.0625 C 1.492188 0.0625 1.0625 -0.101562 0.75 -0.4375 C 0.4375 -0.769531 0.28125 -1.222656 0.28125 -1.796875 C 0.28125 -2.378906 0.4375 -2.835938 0.75 -3.171875 C 1.0625 -3.503906 1.492188 -3.671875 2.046875 -3.671875 C 2.253906 -3.671875 2.453125 -3.640625 2.640625 -3.578125 C 2.835938 -3.523438 3.019531 -3.441406 3.1875 -3.328125 Z M 3.1875 -3.328125 "/>
</g>
<g id="glyph-4-13">
<path d="M 1.6875 -3.125 L 1.03125 -1.328125 L 2.359375 -1.328125 Z M 1.421875 -3.609375 L 1.96875 -3.609375 L 3.34375 0 L 2.84375 0 L 2.515625 -0.921875 L 0.875 -0.921875 L 0.546875 0 L 0.03125 0 Z M 1.421875 -3.609375 "/>
</g>
<g id="glyph-4-14">
<path d="M 2.203125 -1.6875 C 2.304688 -1.65625 2.40625 -1.582031 2.5 -1.46875 C 2.601562 -1.351562 2.703125 -1.191406 2.796875 -0.984375 L 3.296875 0 L 2.78125 0 L 2.3125 -0.921875 C 2.195312 -1.171875 2.082031 -1.332031 1.96875 -1.40625 C 1.851562 -1.488281 1.695312 -1.53125 1.5 -1.53125 L 0.96875 -1.53125 L 0.96875 0 L 0.484375 0 L 0.484375 -3.609375 L 1.59375 -3.609375 C 2 -3.609375 2.300781 -3.519531 2.5 -3.34375 C 2.707031 -3.175781 2.8125 -2.921875 2.8125 -2.578125 C 2.8125 -2.347656 2.757812 -2.15625 2.65625 -2 C 2.550781 -1.851562 2.398438 -1.75 2.203125 -1.6875 Z M 0.96875 -3.203125 L 0.96875 -1.921875 L 1.59375 -1.921875 C 1.820312 -1.921875 1.992188 -1.972656 2.109375 -2.078125 C 2.234375 -2.191406 2.296875 -2.359375 2.296875 -2.578125 C 2.296875 -2.785156 2.234375 -2.941406 2.109375 -3.046875 C 1.992188 -3.148438 1.820312 -3.203125 1.59375 -3.203125 Z M 0.96875 -3.203125 "/>
</g>
<g id="glyph-4-15">
<path d="M 2.71875 -1.640625 L 2.71875 0 L 2.265625 0 L 2.265625 -1.625 C 2.265625 -1.875 2.210938 -2.0625 2.109375 -2.1875 C 2.015625 -2.320312 1.867188 -2.390625 1.671875 -2.390625 C 1.429688 -2.390625 1.238281 -2.3125 1.09375 -2.15625 C 0.957031 -2 0.890625 -1.789062 0.890625 -1.53125 L 0.890625 0 L 0.453125 0 L 0.453125 -2.703125 L 0.890625 -2.703125 L 0.890625 -2.28125 C 1.003906 -2.445312 1.128906 -2.570312 1.265625 -2.65625 C 1.410156 -2.738281 1.578125 -2.78125 1.765625 -2.78125 C 2.078125 -2.78125 2.3125 -2.679688 2.46875 -2.484375 C 2.632812 -2.296875 2.71875 -2.015625 2.71875 -1.640625 Z M 2.71875 -1.640625 "/>
</g>
<g id="glyph-4-16">
<path d="M 2.25 -1.390625 C 2.25 -1.710938 2.179688 -1.960938 2.046875 -2.140625 C 1.910156 -2.316406 1.722656 -2.40625 1.484375 -2.40625 C 1.242188 -2.40625 1.054688 -2.316406 0.921875 -2.140625 C 0.796875 -1.960938 0.734375 -1.710938 0.734375 -1.390625 C 0.734375 -1.066406 0.796875 -0.816406 0.921875 -0.640625 C 1.054688 -0.460938 1.242188 -0.375 1.484375 -0.375 C 1.722656 -0.375 1.910156 -0.460938 2.046875 -0.640625 C 2.179688 -0.816406 2.25 -1.066406 2.25 -1.390625 Z M 2.6875 -0.34375 C 2.6875 0.121094 2.582031 0.46875 2.375 0.6875 C 2.175781 0.914062 1.867188 1.03125 1.453125 1.03125 C 1.296875 1.03125 1.144531 1.015625 1 0.984375 C 0.863281 0.960938 0.726562 0.929688 0.59375 0.890625 L 0.59375 0.453125 C 0.726562 0.523438 0.859375 0.578125 0.984375 0.609375 C 1.109375 0.640625 1.238281 0.65625 1.375 0.65625 C 1.664062 0.65625 1.882812 0.578125 2.03125 0.421875 C 2.175781 0.273438 2.25 0.0507812 2.25 -0.25 L 2.25 -0.46875 C 2.15625 -0.3125 2.035156 -0.191406 1.890625 -0.109375 C 1.753906 -0.0351562 1.582031 0 1.375 0 C 1.039062 0 0.769531 -0.125 0.5625 -0.375 C 0.363281 -0.632812 0.265625 -0.972656 0.265625 -1.390625 C 0.265625 -1.804688 0.363281 -2.140625 0.5625 -2.390625 C 0.769531 -2.648438 1.039062 -2.78125 1.375 -2.78125 C 1.582031 -2.78125 1.753906 -2.738281 1.890625 -2.65625 C 2.035156 -2.570312 2.15625 -2.453125 2.25 -2.296875 L 2.25 -2.703125 L 2.6875 -2.703125 Z M 2.6875 -0.34375 "/>
</g>
</g>
<clipPath id="clip-0">
<path clip-rule="nonzero" d="M 1.085938 0 L 232.914062 0 L 232.914062 77.539062 L 1.085938 77.539062 Z M 1.085938 0 "/>
</clipPath>
<clipPath id="clip-1">
<path clip-rule="nonzero" d="M 23 57 L 46 57 L 46 59.132812 L 23 59.132812 Z M 23 57 "/>
</clipPath>
<clipPath id="clip-2">
<path clip-rule="nonzero" d="M 23 56 L 46 56 L 46 59.132812 L 23 59.132812 Z M 23 56 "/>
</clipPath>
<clipPath id="clip-3">
<path clip-rule="nonzero" d="M 50 45 L 72 45 L 72 59.132812 L 50 59.132812 Z M 50 45 "/>
</clipPath>
<clipPath id="clip-4">
<path clip-rule="nonzero" d="M 50 44 L 73 44 L 73 59.132812 L 50 59.132812 Z M 50 44 "/>
</clipPath>
<clipPath id="clip-5">
<path clip-rule="nonzero" d="M 77 47 L 99 47 L 99 59.132812 L 77 59.132812 Z M 77 47 "/>
</clipPath>
<clipPath id="clip-6">
<path clip-rule="nonzero" d="M 77 46 L 99 46 L 99 59.132812 L 77 59.132812 Z M 77 46 "/>
</clipPath>
<clipPath id="clip-7">
<path clip-rule="nonzero" d="M 23 6.921875 L 46 6.921875 L 46 33 L 23 33 Z M 23 6.921875 "/>
</clipPath>
<clipPath id="clip-8">
<path clip-rule="nonzero" d="M 50 6.921875 L 72 6.921875 L 72 25 L 50 25 Z M 50 6.921875 "/>
</clipPath>
<clipPath id="clip-9">
<path clip-rule="nonzero" d="M 50 6.921875 L 73 6.921875 L 73 25 L 50 25 Z M 50 6.921875 "/>
</clipPath>
<clipPath id="clip-10">
<path clip-rule="nonzero" d="M 77 6.921875 L 99 6.921875 L 99 27 L 77 27 Z M 77 6.921875 "/>
</clipPath>
<clipPath id="clip-11">
<path clip-rule="nonzero" d="M 24 71 L 98 71 L 98 77.539062 L 24 77.539062 Z M 24 71 "/>
</clipPath>
<clipPath id="clip-12">
<path clip-rule="nonzero" d="M 1.085938 52 L 7 52 L 7 56 L 1.085938 56 Z M 1.085938 52 "/>
</clipPath>
<clipPath id="clip-13">
<path clip-rule="nonzero" d="M 1.085938 10 L 8 10 L 8 50 L 1.085938 50 Z M 1.085938 10 "/>
</clipPath>
<clipPath id="clip-14">
<path clip-rule="nonzero" d="M 135 6.921875 L 140 6.921875 L 140 11 L 135 11 Z M 135 6.921875 "/>
</clipPath>
<clipPath id="clip-15">
<path clip-rule="nonzero" d="M 134 6.921875 L 140 6.921875 L 140 12 L 134 12 Z M 134 6.921875 "/>
</clipPath>
<clipPath id="clip-16">
<path clip-rule="nonzero" d="M 226 17 L 232.914062 17 L 232.914062 50 L 226 50 Z M 226 17 "/>
</clipPath>
</defs>
<g clip-path="url(#clip-0)">
<path fill-rule="nonzero" fill="rgb(100%, 100%, 100%)" fill-opacity="1" d="M 1.085938 77.539062 L 232.914062 77.539062 L 232.914062 0 L 1.085938 0 Z M 1.085938 77.539062 "/>
</g>
<path fill-rule="nonzero" fill="rgb(100%, 100%, 100%)" fill-opacity="1" d="M 21.101562 59.132812 L 101.351562 59.132812 L 101.351562 6.921875 L 21.101562 6.921875 Z M 21.101562 59.132812 "/>
<g clip-path="url(#clip-1)">
<path fill-rule="nonzero" fill="rgb(15.293884%, 68.234253%, 37.646484%)" fill-opacity="0.9" d="M 23.777344 59.132812 L 45.175781 59.132812 L 45.175781 57.046875 L 23.777344 57.046875 Z M 23.777344 59.132812 "/>
</g>
<g clip-path="url(#clip-2)">
<path fill="none" stroke-width="0.4" stroke-linecap="butt" stroke-linejoin="miter" stroke="rgb(0%, 0%, 0%)" stroke-opacity="0.9" stroke-miterlimit="10" d="M 22.903482 18.579219 L 44.502507 18.579219 L 44.502507 20.68471 L 22.903482 20.68471 Z M 22.903482 18.579219 " transform="matrix(0.990713, 0, 0, -0.990713, 1.086563, 77.539488)"/>
</g>
<g clip-path="url(#clip-3)">
<path fill-rule="nonzero" fill="rgb(15.293884%, 68.234253%, 37.646484%)" fill-opacity="0.9" d="M 50.527344 59.132812 L 71.925781 59.132812 L 71.925781 45.035156 L 50.527344 45.035156 Z M 50.527344 59.132812 "/>
</g>
<g clip-path="url(#clip-4)">
<path fill="none" stroke-width="0.4" stroke-linecap="butt" stroke-linejoin="miter" stroke="rgb(0%, 0%, 0%)" stroke-opacity="0.9" stroke-miterlimit="10" d="M 49.904234 18.579219 L 71.503259 18.579219 L 71.503259 32.809025 L 49.904234 32.809025 Z M 49.904234 18.579219 " transform="matrix(0.990713, 0, 0, -0.990713, 1.086563, 77.539488)"/>
</g>
<g clip-path="url(#clip-5)">
<path fill-rule="nonzero" fill="rgb(15.293884%, 68.234253%, 37.646484%)" fill-opacity="0.9" d="M 77.277344 59.132812 L 98.675781 59.132812 L 98.675781 47.125 L 77.277344 47.125 Z M 77.277344 59.132812 "/>
</g>
<g clip-path="url(#clip-6)">
<path fill="none" stroke-width="0.4" stroke-linecap="butt" stroke-linejoin="miter" stroke="rgb(0%, 0%, 0%)" stroke-opacity="0.9" stroke-miterlimit="10" d="M 76.904987 18.579219 L 98.504011 18.579219 L 98.504011 30.699591 L 76.904987 30.699591 Z M 76.904987 18.579219 " transform="matrix(0.990713, 0, 0, -0.990713, 1.086563, 77.539488)"/>
</g>
<path fill-rule="nonzero" fill="rgb(95.292664%, 61.175537%, 7.058716%)" fill-opacity="0.9" stroke-width="0.4" stroke-linecap="butt" stroke-linejoin="miter" stroke="rgb(0%, 0%, 0%)" stroke-opacity="0.9" stroke-miterlimit="10" d="M 22.903482 20.68471 L 44.502507 20.68471 L 44.502507 45.457742 L 22.903482 45.457742 Z M 22.903482 20.68471 " transform="matrix(0.990713, 0, 0, -0.990713, 1.086563, 77.539488)"/>
<path fill-rule="nonzero" fill="rgb(95.292664%, 61.175537%, 7.058716%)" fill-opacity="0.9" stroke-width="0.4" stroke-linecap="butt" stroke-linejoin="miter" stroke="rgb(0%, 0%, 0%)" stroke-opacity="0.9" stroke-miterlimit="10" d="M 49.904234 32.809025 L 71.503259 32.809025 L 71.503259 53.36319 L 49.904234 53.36319 Z M 49.904234 32.809025 " transform="matrix(0.990713, 0, 0, -0.990713, 1.086563, 77.539488)"/>
<path fill-rule="nonzero" fill="rgb(95.292664%, 61.175537%, 7.058716%)" fill-opacity="0.9" stroke-width="0.4" stroke-linecap="butt" stroke-linejoin="miter" stroke="rgb(0%, 0%, 0%)" stroke-opacity="0.9" stroke-miterlimit="10" d="M 76.904987 30.699591 L 98.504011 30.699591 L 98.504011 51.253757 L 76.904987 51.253757 Z M 76.904987 30.699591 " transform="matrix(0.990713, 0, 0, -0.990713, 1.086563, 77.539488)"/>
<g clip-path="url(#clip-7)">
<path fill-rule="nonzero" fill="rgb(74.116516%, 76.469421%, 78.038025%)" fill-opacity="0.9" stroke-width="0.4" stroke-linecap="butt" stroke-linejoin="miter" stroke="rgb(0%, 0%, 0%)" stroke-opacity="0.9" stroke-miterlimit="10" d="M 22.903482 45.457742 L 44.502507 45.457742 L 44.502507 71.279577 L 22.903482 71.279577 Z M 22.903482 45.457742 " transform="matrix(0.990713, 0, 0, -0.990713, 1.086563, 77.539488)"/>
</g>
<g clip-path="url(#clip-8)">
<path fill-rule="nonzero" fill="rgb(74.116516%, 76.469421%, 78.038025%)" fill-opacity="0.9" d="M 50.527344 24.671875 L 71.925781 24.671875 L 71.925781 6.921875 L 50.527344 6.921875 Z M 50.527344 24.671875 "/>
</g>
<g clip-path="url(#clip-9)">
<path fill="none" stroke-width="0.4" stroke-linecap="butt" stroke-linejoin="miter" stroke="rgb(0%, 0%, 0%)" stroke-opacity="0.9" stroke-miterlimit="10" d="M 49.904234 53.36319 L 71.503259 53.36319 L 71.503259 71.279577 L 49.904234 71.279577 Z M 49.904234 53.36319 " transform="matrix(0.990713, 0, 0, -0.990713, 1.086563, 77.539488)"/>
</g>
<g clip-path="url(#clip-10)">
<path fill-rule="nonzero" fill="rgb(74.116516%, 76.469421%, 78.038025%)" fill-opacity="0.9" stroke-width="0.4" stroke-linecap="butt" stroke-linejoin="miter" stroke="rgb(0%, 0%, 0%)" stroke-opacity="0.9" stroke-miterlimit="10" d="M 76.904987 51.253757 L 98.504011 51.253757 L 98.504011 71.279577 L 76.904987 71.279577 Z M 76.904987 51.253757 " transform="matrix(0.990713, 0, 0, -0.990713, 1.086563, 77.539488)"/>
</g>
<path fill="none" stroke-width="0.8" stroke-linecap="butt" stroke-linejoin="round" stroke="rgb(0%, 0%, 0%)" stroke-opacity="1" stroke-miterlimit="10" d="M 33.702994 18.579219 L 33.702994 15.077953 " transform="matrix(0.990713, 0, 0, -0.990713, 1.086563, 77.539488)"/>
<g fill="rgb(0%, 0%, 0%)" fill-opacity="1">
<use xlink:href="#glyph-0-0" x="30.700028" y="68.60759"/>
<use xlink:href="#glyph-0-1" x="34.48059" y="68.60759"/>
</g>
<path fill="none" stroke-width="0.8" stroke-linecap="butt" stroke-linejoin="round" stroke="rgb(0%, 0%, 0%)" stroke-opacity="1" stroke-miterlimit="10" d="M 60.703747 18.579219 L 60.703747 15.077953 " transform="matrix(0.990713, 0, 0, -0.990713, 1.086563, 77.539488)"/>
<g fill="rgb(0%, 0%, 0%)" fill-opacity="1">
<use xlink:href="#glyph-0-2" x="55.561596" y="68.60759"/>
<use xlink:href="#glyph-0-1" x="59.342157" y="68.60759"/>
<use xlink:href="#glyph-0-1" x="63.122718" y="68.60759"/>
</g>
<path fill="none" stroke-width="0.8" stroke-linecap="butt" stroke-linejoin="round" stroke="rgb(0%, 0%, 0%)" stroke-opacity="1" stroke-miterlimit="10" d="M 87.704499 18.579219 L 87.704499 15.077953 " transform="matrix(0.990713, 0, 0, -0.990713, 1.086563, 77.539488)"/>
<g fill="rgb(0%, 0%, 0%)" fill-opacity="1">
<use xlink:href="#glyph-0-2" x="82.31171" y="68.60759"/>
<use xlink:href="#glyph-0-0" x="86.092272" y="68.60759"/>
<use xlink:href="#glyph-0-1" x="89.872833" y="68.60759"/>
</g>
<g clip-path="url(#clip-11)">
<g fill="rgb(0%, 0%, 0%)" fill-opacity="1">
<use xlink:href="#glyph-1-0" x="24.261253" y="76.099858"/>
<use xlink:href="#glyph-1-1" x="26.772711" y="76.099858"/>
<use xlink:href="#glyph-1-2" x="30.720207" y="76.099858"/>
<use xlink:href="#glyph-1-3" x="33.231665" y="76.099858"/>
<use xlink:href="#glyph-1-4" x="35.279469" y="76.099858"/>
<use xlink:href="#glyph-1-1" x="39.368637" y="76.099858"/>
<use xlink:href="#glyph-1-5" x="43.316134" y="76.099858"/>
<use xlink:href="#glyph-1-6" x="49.588339" y="76.099858"/>
<use xlink:href="#glyph-1-7" x="53.677507" y="76.099858"/>
<use xlink:href="#glyph-1-8" x="55.467726" y="76.099858"/>
<use xlink:href="#glyph-1-3" x="59.428102" y="76.099858"/>
<use xlink:href="#glyph-1-9" x="61.475906" y="76.099858"/>
<use xlink:href="#glyph-1-10" x="65.565074" y="76.099858"/>
<use xlink:href="#glyph-1-11" x="67.355293" y="76.099858"/>
<use xlink:href="#glyph-1-12" x="70.710343" y="76.099858"/>
<use xlink:href="#glyph-1-13" x="73.23468" y="76.099858"/>
<use xlink:href="#glyph-1-10" x="75.88137" y="76.099858"/>
<use xlink:href="#glyph-1-14" x="77.671589" y="76.099858"/>
<use xlink:href="#glyph-1-15" x="81.760757" y="76.099858"/>
<use xlink:href="#glyph-1-12" x="85.843486" y="76.099858"/>
<use xlink:href="#glyph-1-10" x="88.367823" y="76.099858"/>
<use xlink:href="#glyph-1-16" x="90.158041" y="76.099858"/>
<use xlink:href="#glyph-1-17" x="94.099098" y="76.099858"/>
</g>
</g>
<path fill="none" stroke-width="0.8" stroke-linecap="butt" stroke-linejoin="round" stroke="rgb(0%, 0%, 0%)" stroke-opacity="1" stroke-miterlimit="10" d="M 20.202618 18.579219 L 16.701352 18.579219 " transform="matrix(0.990713, 0, 0, -0.990713, 1.086563, 77.539488)"/>
<g fill="rgb(0%, 0%, 0%)" fill-opacity="1">
<use xlink:href="#glyph-0-1" x="12.371405" y="61.39396"/>
</g>
<path fill="none" stroke-width="0.8" stroke-linecap="butt" stroke-linejoin="round" stroke="rgb(0%, 0%, 0%)" stroke-opacity="1" stroke-miterlimit="10" d="M 20.202618 31.752337 L 16.701352 31.752337 " transform="matrix(0.990713, 0, 0, -0.990713, 1.086563, 77.539488)"/>
<g fill="rgb(0%, 0%, 0%)" fill-opacity="1">
<use xlink:href="#glyph-0-3" x="8.594311" y="48.34085"/>
<use xlink:href="#glyph-0-0" x="12.374873" y="48.34085"/>
</g>
<path fill="none" stroke-width="0.8" stroke-linecap="butt" stroke-linejoin="round" stroke="rgb(0%, 0%, 0%)" stroke-opacity="1" stroke-miterlimit="10" d="M 20.202618 44.929398 L 16.701352 44.929398 " transform="matrix(0.990713, 0, 0, -0.990713, 1.086563, 77.539488)"/>
<g fill="rgb(0%, 0%, 0%)" fill-opacity="1">
<use xlink:href="#glyph-0-0" x="8.594311" y="35.28774"/>
<use xlink:href="#glyph-0-1" x="12.374873" y="35.28774"/>
</g>
<path fill="none" stroke-width="0.8" stroke-linecap="butt" stroke-linejoin="round" stroke="rgb(0%, 0%, 0%)" stroke-opacity="1" stroke-miterlimit="10" d="M 20.202618 58.106459 L 16.701352 58.106459 " transform="matrix(0.990713, 0, 0, -0.990713, 1.086563, 77.539488)"/>
<g fill="rgb(0%, 0%, 0%)" fill-opacity="1">
<use xlink:href="#glyph-0-4" x="8.594311" y="22.234631"/>
<use xlink:href="#glyph-0-0" x="12.374873" y="22.234631"/>
</g>
<path fill="none" stroke-width="0.8" stroke-linecap="butt" stroke-linejoin="round" stroke="rgb(0%, 0%, 0%)" stroke-opacity="1" stroke-miterlimit="10" d="M 20.202618 71.279577 L 16.701352 71.279577 " transform="matrix(0.990713, 0, 0, -0.990713, 1.086563, 77.539488)"/>
<g fill="rgb(0%, 0%, 0%)" fill-opacity="1">
<use xlink:href="#glyph-0-2" x="4.817218" y="9.181521"/>
<use xlink:href="#glyph-0-1" x="8.597779" y="9.181521"/>
<use xlink:href="#glyph-0-1" x="12.37834" y="9.181521"/>
</g>
<g clip-path="url(#clip-12)">
<g fill="rgb(0%, 0%, 0%)" fill-opacity="1">
<use xlink:href="#glyph-2-0" x="6.349727" y="56.247515"/>
</g>
</g>
<g fill="rgb(0%, 0%, 0%)" fill-opacity="1">
<use xlink:href="#glyph-2-1" x="6.349727" y="52.472774"/>
</g>
<g clip-path="url(#clip-13)">
<g fill="rgb(0%, 0%, 0%)" fill-opacity="1">
<use xlink:href="#glyph-2-2" x="6.349727" y="49.965403"/>
<use xlink:href="#glyph-2-3" x="6.349727" y="46.024346"/>
<use xlink:href="#glyph-2-2" x="6.349727" y="41.935178"/>
<use xlink:href="#glyph-2-1" x="6.349727" y="37.994121"/>
<use xlink:href="#glyph-2-4" x="6.349727" y="35.347431"/>
<use xlink:href="#glyph-2-5" x="6.349727" y="32.823094"/>
<use xlink:href="#glyph-2-2" x="6.349727" y="31.032875"/>
<use xlink:href="#glyph-2-6" x="6.349727" y="27.091818"/>
<use xlink:href="#glyph-2-7" x="6.349727" y="23.00909"/>
<use xlink:href="#glyph-2-8" x="6.349727" y="20.961286"/>
<use xlink:href="#glyph-2-9" x="6.349727" y="18.449828"/>
<use xlink:href="#glyph-2-10" x="6.349727" y="12.332174"/>
</g>
</g>
<path fill="none" stroke-width="0.6" stroke-linecap="square" stroke-linejoin="miter" stroke="rgb(0%, 0%, 0%)" stroke-opacity="1" stroke-miterlimit="10" d="M 20.202618 18.579219 L 20.202618 71.279577 " transform="matrix(0.990713, 0, 0, -0.990713, 1.086563, 77.539488)"/>
<path fill="none" stroke-width="0.6" stroke-linecap="square" stroke-linejoin="miter" stroke="rgb(0%, 0%, 0%)" stroke-opacity="1" stroke-miterlimit="10" d="M 20.202618 18.579219 L 101.204875 18.579219 " transform="matrix(0.990713, 0, 0, -0.990713, 1.086563, 77.539488)"/>
<g fill="rgb(100%, 100%, 100%)" fill-opacity="1">
<use xlink:href="#glyph-3-0" x="54.702462" y="53.726085"/>
<use xlink:href="#glyph-3-1" x="58.494912" y="53.726085"/>
<use xlink:href="#glyph-3-2" x="62.287362" y="53.726085"/>
</g>
<g fill="rgb(100%, 100%, 100%)" fill-opacity="1">
<use xlink:href="#glyph-3-0" x="81.452576" y="54.770334"/>
<use xlink:href="#glyph-3-3" x="85.245026" y="54.770334"/>
<use xlink:href="#glyph-3-2" x="89.037476" y="54.770334"/>
</g>
<g fill="rgb(100%, 100%, 100%)" fill-opacity="1">
<use xlink:href="#glyph-3-4" x="27.952347" y="46.416344"/>
<use xlink:href="#glyph-3-1" x="31.744797" y="46.416344"/>
<use xlink:href="#glyph-3-2" x="35.537247" y="46.416344"/>
</g>
<g fill="rgb(100%, 100%, 100%)" fill-opacity="1">
<use xlink:href="#glyph-3-3" x="54.702462" y="36.49598"/>
<use xlink:href="#glyph-3-5" x="58.494912" y="36.49598"/>
<use xlink:href="#glyph-3-2" x="62.287362" y="36.49598"/>
</g>
<g fill="rgb(100%, 100%, 100%)" fill-opacity="1">
<use xlink:href="#glyph-3-3" x="81.452576" y="38.584478"/>
<use xlink:href="#glyph-3-5" x="85.245026" y="38.584478"/>
<use xlink:href="#glyph-3-2" x="89.037476" y="38.584478"/>
</g>
<g fill="rgb(100%, 100%, 100%)" fill-opacity="1">
<use xlink:href="#glyph-3-4" x="27.952347" y="21.354373"/>
<use xlink:href="#glyph-3-5" x="31.744797" y="21.354373"/>
<use xlink:href="#glyph-3-2" x="35.537247" y="21.354373"/>
</g>
<g fill="rgb(100%, 100%, 100%)" fill-opacity="1">
<use xlink:href="#glyph-3-3" x="54.702462" y="17.43844"/>
<use xlink:href="#glyph-3-4" x="58.494912" y="17.43844"/>
<use xlink:href="#glyph-3-2" x="62.287362" y="17.43844"/>
</g>
<g fill="rgb(100%, 100%, 100%)" fill-opacity="1">
<use xlink:href="#glyph-3-3" x="81.452576" y="18.482688"/>
<use xlink:href="#glyph-3-6" x="85.245026" y="18.482688"/>
<use xlink:href="#glyph-3-2" x="89.037476" y="18.482688"/>
</g>
<path fill-rule="nonzero" fill="rgb(15.293884%, 68.234253%, 37.646484%)" fill-opacity="0.9" stroke-width="0.4" stroke-linecap="butt" stroke-linejoin="miter" stroke="rgb(0%, 0%, 0%)" stroke-opacity="0.9" stroke-miterlimit="10" d="M 18.578157 72.470323 L 23.577712 72.470323 L 23.577712 75.967646 L 18.578157 75.967646 Z M 18.578157 72.470323 " transform="matrix(0.990713, 0, 0, -0.990713, 1.086563, 77.539488)"/>
<g fill="rgb(0%, 0%, 0%)" fill-opacity="1">
<use xlink:href="#glyph-4-0" x="28.409864" y="5.74304"/>
<use xlink:href="#glyph-4-1" x="31.555378" y="5.74304"/>
<use xlink:href="#glyph-4-2" x="34.695939" y="5.74304"/>
<use xlink:href="#glyph-4-2" x="37.4204" y="5.74304"/>
<use xlink:href="#glyph-4-3" x="40.144861" y="5.74304"/>
<use xlink:href="#glyph-4-4" x="43.191304" y="5.74304"/>
<use xlink:href="#glyph-4-4" x="45.772112" y="5.74304"/>
</g>
<path fill-rule="nonzero" fill="rgb(95.292664%, 61.175537%, 7.058716%)" fill-opacity="0.9" stroke-width="0.4" stroke-linecap="butt" stroke-linejoin="miter" stroke="rgb(0%, 0%, 0%)" stroke-opacity="0.9" stroke-miterlimit="10" d="M 50.219664 72.470323 L 55.219219 72.470323 L 55.219219 75.967646 L 50.219664 75.967646 Z M 50.219664 72.470323 " transform="matrix(0.990713, 0, 0, -0.990713, 1.086563, 77.539488)"/>
<g fill="rgb(0%, 0%, 0%)" fill-opacity="1">
<use xlink:href="#glyph-4-5" x="59.756647" y="5.74304"/>
</g>
<g fill="rgb(0%, 0%, 0%)" fill-opacity="1">
<use xlink:href="#glyph-4-6" x="62.526928" y="5.74304"/>
<use xlink:href="#glyph-4-7" x="65.563464" y="5.74304"/>
<use xlink:href="#glyph-4-8" x="67.59938" y="5.74304"/>
<use xlink:href="#glyph-4-9" x="69.541177" y="5.74304"/>
<use xlink:href="#glyph-4-6" x="70.918269" y="5.74304"/>
<use xlink:href="#glyph-4-10" x="73.954804" y="5.74304"/>
</g>
<path fill-rule="nonzero" fill="rgb(74.116516%, 76.469421%, 78.038025%)" fill-opacity="0.9" stroke-width="0.4" stroke-linecap="butt" stroke-linejoin="miter" stroke="rgb(0%, 0%, 0%)" stroke-opacity="0.9" stroke-miterlimit="10" d="M 77.421502 72.470323 L 82.425 72.470323 L 82.425 75.967646 L 77.421502 75.967646 Z M 77.421502 72.470323 " transform="matrix(0.990713, 0, 0, -0.990713, 1.086563, 77.539488)"/>
<g fill="rgb(0%, 0%, 0%)" fill-opacity="1">
<use xlink:href="#glyph-4-11" x="86.70714" y="5.74304"/>
</g>
<g fill="rgb(0%, 0%, 0%)" fill-opacity="1">
<use xlink:href="#glyph-4-6" x="89.106523" y="5.74304"/>
<use xlink:href="#glyph-4-9" x="92.143059" y="5.74304"/>
<use xlink:href="#glyph-4-10" x="93.52015" y="5.74304"/>
<use xlink:href="#glyph-4-1" x="94.897242" y="5.74304"/>
<use xlink:href="#glyph-4-7" x="98.037802" y="5.74304"/>
</g>
<g fill="rgb(0%, 0%, 0%)" fill-opacity="1">
<use xlink:href="#glyph-4-3" x="99.965358" y="5.74304"/>
</g>
<path fill-rule="nonzero" fill="rgb(100%, 100%, 100%)" fill-opacity="1" d="M 133.453125 59.132812 L 213.703125 59.132812 L 213.703125 6.921875 L 133.453125 6.921875 Z M 133.453125 59.132812 "/>
<path fill="none" stroke-width="0.8" stroke-linecap="butt" stroke-linejoin="round" stroke="rgb(0%, 0%, 0%)" stroke-opacity="1" stroke-miterlimit="10" d="M 137.289993 18.579219 L 137.289993 15.077953 " transform="matrix(0.990713, 0, 0, -0.990713, 1.086563, 77.539488)"/>
<g fill="rgb(0%, 0%, 0%)" fill-opacity="1">
<use xlink:href="#glyph-0-0" x="133.323195" y="68.60759"/>
<use xlink:href="#glyph-0-1" x="137.103756" y="68.60759"/>
</g>
<path fill="none" stroke-width="0.8" stroke-linecap="butt" stroke-linejoin="round" stroke="rgb(0%, 0%, 0%)" stroke-opacity="1" stroke-miterlimit="10" d="M 174.108484 18.579219 L 174.108484 15.077953 " transform="matrix(0.990713, 0, 0, -0.990713, 1.086563, 77.539488)"/>
<g fill="rgb(0%, 0%, 0%)" fill-opacity="1">
<use xlink:href="#glyph-0-2" x="167.912077" y="68.60759"/>
<use xlink:href="#glyph-0-1" x="171.692638" y="68.60759"/>
<use xlink:href="#glyph-0-1" x="175.4732" y="68.60759"/>
</g>
<path fill="none" stroke-width="0.8" stroke-linecap="butt" stroke-linejoin="round" stroke="rgb(0%, 0%, 0%)" stroke-opacity="1" stroke-miterlimit="10" d="M 210.926975 18.579219 L 210.926975 15.077953 " transform="matrix(0.990713, 0, 0, -0.990713, 1.086563, 77.539488)"/>
<g fill="rgb(0%, 0%, 0%)" fill-opacity="1">
<use xlink:href="#glyph-0-2" x="204.389506" y="68.60759"/>
<use xlink:href="#glyph-0-0" x="208.170067" y="68.60759"/>
<use xlink:href="#glyph-0-1" x="211.950629" y="68.60759"/>
</g>
<g fill="rgb(0%, 0%, 0%)" fill-opacity="1">
<use xlink:href="#glyph-1-0" x="141.209262" y="76.099858"/>
<use xlink:href="#glyph-1-14" x="143.72072" y="76.099858"/>
<use xlink:href="#glyph-1-2" x="147.809888" y="76.099858"/>
<use xlink:href="#glyph-1-3" x="150.321346" y="76.099858"/>
<use xlink:href="#glyph-1-18" x="152.36915" y="76.099858"/>
<use xlink:href="#glyph-1-13" x="157.359868" y="76.099858"/>
<use xlink:href="#glyph-1-1" x="160.006558" y="76.099858"/>
<use xlink:href="#glyph-1-9" x="163.954054" y="76.099858"/>
<use xlink:href="#glyph-1-10" x="168.043223" y="76.099858"/>
<use xlink:href="#glyph-1-8" x="169.833441" y="76.099858"/>
<use xlink:href="#glyph-1-17" x="173.793817" y="76.099858"/>
<use xlink:href="#glyph-1-12" x="177.876546" y="76.099858"/>
<use xlink:href="#glyph-1-3" x="180.400883" y="76.099858"/>
<use xlink:href="#glyph-1-19" x="182.448687" y="76.099858"/>
<use xlink:href="#glyph-1-16" x="185.990487" y="76.099858"/>
<use xlink:href="#glyph-1-17" x="189.931543" y="76.099858"/>
<use xlink:href="#glyph-1-20" x="194.014272" y="76.099858"/>
<use xlink:href="#glyph-1-7" x="196.281024" y="76.099858"/>
<use xlink:href="#glyph-1-10" x="198.071242" y="76.099858"/>
<use xlink:href="#glyph-1-19" x="199.861461" y="76.099858"/>
<use xlink:href="#glyph-1-12" x="203.403261" y="76.099858"/>
</g>
<path fill="none" stroke-width="0.8" stroke-linecap="butt" stroke-linejoin="round" stroke="rgb(0%, 0%, 0%)" stroke-opacity="1" stroke-miterlimit="10" d="M 133.607355 18.579219 L 130.10609 18.579219 " transform="matrix(0.990713, 0, 0, -0.990713, 1.086563, 77.539488)"/>
<g fill="rgb(90.586853%, 29.803467%, 23.529053%)" fill-opacity="1">
<use xlink:href="#glyph-0-1" x="124.721886" y="61.39396"/>
</g>
<path fill="none" stroke-width="0.8" stroke-linecap="butt" stroke-linejoin="round" stroke="rgb(0%, 0%, 0%)" stroke-opacity="1" stroke-miterlimit="10" d="M 133.607355 39.657785 L 130.10609 39.657785 " transform="matrix(0.990713, 0, 0, -0.990713, 1.086563, 77.539488)"/>
<g fill="rgb(90.586853%, 29.803467%, 23.529053%)" fill-opacity="1">
<use xlink:href="#glyph-0-3" x="120.944793" y="40.508984"/>
<use xlink:href="#glyph-0-1" x="124.725354" y="40.508984"/>
</g>
<path fill="none" stroke-width="0.8" stroke-linecap="butt" stroke-linejoin="round" stroke="rgb(0%, 0%, 0%)" stroke-opacity="1" stroke-miterlimit="10" d="M 133.607355 60.740294 L 130.10609 60.740294 " transform="matrix(0.990713, 0, 0, -0.990713, 1.086563, 77.539488)"/>
<g fill="rgb(90.586853%, 29.803467%, 23.529053%)" fill-opacity="1">
<use xlink:href="#glyph-0-5" x="120.944793" y="19.624009"/>
<use xlink:href="#glyph-0-1" x="124.725354" y="19.624009"/>
</g>
<g fill="rgb(90.586853%, 29.803467%, 23.529053%)" fill-opacity="1">
<use xlink:href="#glyph-2-11" x="119.505163" y="46.309424"/>
<use xlink:href="#glyph-2-12" x="119.505163" y="41.814559"/>
<use xlink:href="#glyph-2-13" x="119.505163" y="37.409848"/>
<use xlink:href="#glyph-2-7" x="119.505163" y="32.934301"/>
<use xlink:href="#glyph-2-8" x="119.505163" y="30.886497"/>
<use xlink:href="#glyph-2-9" x="119.505163" y="28.37504"/>
<use xlink:href="#glyph-2-10" x="119.505163" y="22.257386"/>
</g>
<path fill="none" stroke-width="1.2" stroke-linecap="square" stroke-linejoin="round" stroke="rgb(90.586853%, 29.803467%, 23.529053%)" stroke-opacity="1" stroke-miterlimit="10" d="M 137.289993 69.489516 L 174.108484 63.555501 L 210.926975 56.205997 " transform="matrix(0.990713, 0, 0, -0.990713, 1.086563, 77.539488)"/>
<g clip-path="url(#clip-14)">
<path fill-rule="nonzero" fill="rgb(90.586853%, 29.803467%, 23.529053%)" fill-opacity="1" d="M 137.101562 10.679688 C 137.625 10.679688 138.128906 10.46875 138.5 10.097656 C 138.871094 9.726562 139.082031 9.222656 139.082031 8.695312 C 139.082031 8.171875 138.871094 7.667969 138.5 7.296875 C 138.128906 6.925781 137.625 6.714844 137.101562 6.714844 C 136.574219 6.714844 136.070312 6.925781 135.699219 7.296875 C 135.328125 7.667969 135.117188 8.171875 135.117188 8.695312 C 135.117188 9.222656 135.328125 9.726562 135.699219 10.097656 C 136.070312 10.46875 136.574219 10.679688 137.101562 10.679688 Z M 137.101562 10.679688 "/>
</g>
<g clip-path="url(#clip-15)">
<path fill="none" stroke-width="1" stroke-linecap="butt" stroke-linejoin="round" stroke="rgb(90.586853%, 29.803467%, 23.529053%)" stroke-opacity="1" stroke-miterlimit="10" d="M 0.00128558 -2.001597 C 0.52963 -2.001597 1.03826 -1.788682 1.412832 -1.41411 C 1.787404 -1.039537 2.000319 -0.530907 2.000319 0.00137957 C 2.000319 0.529724 1.787404 1.038354 1.412832 1.412926 C 1.03826 1.787498 0.52963 2.000413 0.00128558 2.000413 C -0.531001 2.000413 -1.039631 1.787498 -1.414204 1.412926 C -1.788776 1.038354 -2.001691 0.529724 -2.001691 0.00137957 C -2.001691 -0.530907 -1.788776 -1.039537 -1.414204 -1.41411 C -1.039631 -1.788682 -0.531001 -2.001597 0.00128558 -2.001597 Z M 0.00128558 -2.001597 " transform="matrix(0.990713, 0, 0, -0.990713, 137.100289, 8.696679)"/>
</g>
<path fill-rule="nonzero" fill="rgb(90.586853%, 29.803467%, 23.529053%)" fill-opacity="1" stroke-width="1" stroke-linecap="butt" stroke-linejoin="round" stroke="rgb(90.586853%, 29.803467%, 23.529053%)" stroke-opacity="1" stroke-miterlimit="10" d="M 0.000410983 -2.00138 C 0.528755 -2.00138 1.037385 -1.788466 1.4159 -1.413893 C 1.790473 -1.039321 1.999444 -0.530691 1.999444 0.00159604 C 1.999444 0.52994 1.790473 1.03857 1.4159 1.413142 C 1.037385 1.787715 0.528755 2.00063 0.000410983 2.00063 C -0.531876 2.00063 -1.040506 1.787715 -1.415078 1.413142 C -1.789651 1.03857 -1.998623 0.52994 -1.998623 0.00159604 C -1.998623 -0.530691 -1.789651 -1.039321 -1.415078 -1.413893 C -1.040506 -1.788466 -0.531876 -2.00138 0.000410983 -2.00138 Z M 0.000410983 -2.00138 " transform="matrix(0.990713, 0, 0, -0.990713, 173.577718, 14.5758)"/>
<path fill-rule="nonzero" fill="rgb(90.586853%, 29.803467%, 23.529053%)" fill-opacity="1" stroke-width="1" stroke-linecap="butt" stroke-linejoin="round" stroke="rgb(90.586853%, 29.803467%, 23.529053%)" stroke-opacity="1" stroke-miterlimit="10" d="M -0.000463616 -2.0003 C 0.531823 -2.0003 1.040453 -1.787385 1.415026 -1.412813 C 1.789598 -1.03824 1.99857 -0.529611 1.99857 -0.00126645 C 1.99857 0.531021 1.789598 1.03965 1.415026 1.414223 C 1.040453 1.788795 0.531823 2.00171 -0.000463616 2.00171 C -0.528808 2.00171 -1.037438 1.788795 -1.415953 1.414223 C -1.790525 1.03965 -1.999497 0.531021 -1.999497 -0.00126645 C -1.999497 -0.529611 -1.790525 -1.03824 -1.415953 -1.412813 C -1.037438 -1.787385 -0.528808 -2.0003 -0.000463616 -2.0003 Z M -0.000463616 -2.0003 " transform="matrix(0.990713, 0, 0, -0.990713, 210.055147, 21.854214)"/>
<path fill="none" stroke-width="0.6" stroke-linecap="square" stroke-linejoin="miter" stroke="rgb(0%, 0%, 0%)" stroke-opacity="1" stroke-miterlimit="10" d="M 133.607355 18.579219 L 133.607355 71.279577 " transform="matrix(0.990713, 0, 0, -0.990713, 1.086563, 77.539488)"/>
<path fill="none" stroke-width="0.6" stroke-linecap="square" stroke-linejoin="miter" stroke="rgb(0%, 0%, 0%)" stroke-opacity="1" stroke-miterlimit="10" d="M 133.607355 18.579219 L 214.609612 18.579219 " transform="matrix(0.990713, 0, 0, -0.990713, 1.086563, 77.539488)"/>
<path fill="none" stroke-width="1.2" stroke-linecap="square" stroke-linejoin="round" stroke="rgb(90.586853%, 29.803467%, 23.529053%)" stroke-opacity="1" stroke-miterlimit="10" d="M 150.975684 74.220956 L 155.975239 74.220956 " transform="matrix(0.990713, 0, 0, -0.990713, 1.086563, 77.539488)"/>
<path fill-rule="nonzero" fill="rgb(90.586853%, 29.803467%, 23.529053%)" fill-opacity="1" stroke-width="1" stroke-linecap="butt" stroke-linejoin="round" stroke="rgb(90.586853%, 29.803467%, 23.529053%)" stroke-opacity="1" stroke-miterlimit="10" d="M 153.475462 72.21798 C 154.003806 72.21798 154.516378 72.430895 154.890951 72.805467 C 155.265523 73.180039 155.474495 73.688669 155.474495 74.220956 C 155.474495 74.7493 155.265523 75.25793 154.890951 75.632502 C 154.516378 76.007075 154.003806 76.21999 153.475462 76.21999 C 152.943174 76.21999 152.434545 76.007075 152.059972 75.632502 C 151.6854 75.25793 151.476428 74.7493 151.476428 74.220956 C 151.476428 73.688669 151.6854 73.180039 152.059972 72.805467 C 152.434545 72.430895 152.943174 72.21798 153.475462 72.21798 Z M 153.475462 72.21798 " transform="matrix(0.990713, 0, 0, -0.990713, 1.086563, 77.539488)"/>
<g fill="rgb(0%, 0%, 0%)" fill-opacity="1">
<use xlink:href="#glyph-4-12" x="159.576155" y="5.74304"/>
<use xlink:href="#glyph-4-13" x="163.033744" y="5.74304"/>
<use xlink:href="#glyph-4-14" x="166.421983" y="5.74304"/>
</g>
<path fill="none" stroke-width="1.2" stroke-linecap="butt" stroke-linejoin="round" stroke="rgb(20.391846%, 59.606934%, 85.881042%)" stroke-opacity="1" stroke-dasharray="4.44 1.92" stroke-miterlimit="10" d="M 172.866481 74.220956 L 177.866036 74.220956 " transform="matrix(0.990713, 0, 0, -0.990713, 1.086563, 77.539488)"/>
<path fill-rule="nonzero" fill="rgb(20.391846%, 59.606934%, 85.881042%)" fill-opacity="1" stroke-width="1" stroke-linecap="butt" stroke-linejoin="miter" stroke="rgb(20.391846%, 59.606934%, 85.881042%)" stroke-opacity="1" stroke-miterlimit="10" d="M 173.367225 72.21798 L 177.365292 72.21798 L 177.365292 76.21999 L 173.367225 76.21999 Z M 173.367225 72.21798 " transform="matrix(0.990713, 0, 0, -0.990713, 1.086563, 77.539488)"/>
<g fill="rgb(0%, 0%, 0%)" fill-opacity="1">
<use xlink:href="#glyph-4-0" x="181.263485" y="5.74304"/>
<use xlink:href="#glyph-4-9" x="184.408999" y="5.74304"/>
<use xlink:href="#glyph-4-15" x="185.78609" y="5.74304"/>
<use xlink:href="#glyph-4-16" x="188.926651" y="5.74304"/>
<use xlink:href="#glyph-4-10" x="192.072165" y="5.74304"/>
<use xlink:href="#glyph-4-3" x="193.449256" y="5.74304"/>
</g>
<path fill="none" stroke-width="0.8" stroke-linecap="butt" stroke-linejoin="round" stroke="rgb(0%, 0%, 0%)" stroke-opacity="1" stroke-miterlimit="10" d="M 214.609612 18.579219 L 218.110878 18.579219 " transform="matrix(0.990713, 0, 0, -0.990713, 1.086563, 77.539488)"/>
<g fill="rgb(20.391846%, 59.606934%, 85.881042%)" fill-opacity="1">
<use xlink:href="#glyph-0-1" x="218.656455" y="61.39396"/>
</g>
<path fill="none" stroke-width="0.8" stroke-linecap="butt" stroke-linejoin="round" stroke="rgb(0%, 0%, 0%)" stroke-opacity="1" stroke-miterlimit="10" d="M 214.609612 39.657785 L 218.110878 39.657785 " transform="matrix(0.990713, 0, 0, -0.990713, 1.086563, 77.539488)"/>
<g fill="rgb(20.391846%, 59.606934%, 85.881042%)" fill-opacity="1">
<use xlink:href="#glyph-0-3" x="218.656455" y="40.508984"/>
<use xlink:href="#glyph-0-1" x="222.437017" y="40.508984"/>
</g>
<path fill="none" stroke-width="0.8" stroke-linecap="butt" stroke-linejoin="round" stroke="rgb(0%, 0%, 0%)" stroke-opacity="1" stroke-miterlimit="10" d="M 214.609612 60.740294 L 218.110878 60.740294 " transform="matrix(0.990713, 0, 0, -0.990713, 1.086563, 77.539488)"/>
<g fill="rgb(20.391846%, 59.606934%, 85.881042%)" fill-opacity="1">
<use xlink:href="#glyph-0-5" x="218.656455" y="19.624009"/>
<use xlink:href="#glyph-0-1" x="222.437017" y="19.624009"/>
</g>
<g clip-path="url(#clip-16)">
<g fill="rgb(20.391846%, 59.606934%, 85.881042%)" fill-opacity="1">
<use xlink:href="#glyph-2-14" x="231.473807" y="49.521502"/>
<use xlink:href="#glyph-2-5" x="231.473807" y="45.432333"/>
<use xlink:href="#glyph-2-6" x="231.473807" y="43.642115"/>
<use xlink:href="#glyph-2-15" x="231.473807" y="39.559386"/>
<use xlink:href="#glyph-2-16" x="231.473807" y="35.470217"/>
<use xlink:href="#glyph-2-17" x="231.473807" y="33.679999"/>
<use xlink:href="#glyph-2-7" x="231.473807" y="29.719623"/>
<use xlink:href="#glyph-2-8" x="231.473807" y="27.671819"/>
<use xlink:href="#glyph-2-9" x="231.473807" y="25.160361"/>
<use xlink:href="#glyph-2-10" x="231.473807" y="19.042708"/>
</g>
</g>
<path fill="none" stroke-width="1.2" stroke-linecap="butt" stroke-linejoin="round" stroke="rgb(20.391846%, 59.606934%, 85.881042%)" stroke-opacity="1" stroke-dasharray="4.44 1.92" stroke-miterlimit="10" d="M 137.289993 21.528483 L 174.108484 27.474326 L 210.926975 38.194981 " transform="matrix(0.990713, 0, 0, -0.990713, 1.086563, 77.539488)"/>
<path fill-rule="nonzero" fill="rgb(20.391846%, 59.606934%, 85.881042%)" fill-opacity="1" stroke-width="1" stroke-linecap="butt" stroke-linejoin="miter" stroke="rgb(20.391846%, 59.606934%, 85.881042%)" stroke-opacity="1" stroke-miterlimit="10" d="M -2.001691 -1.99998 L 2.000319 -1.99998 L 2.000319 1.998087 L -2.001691 1.998087 Z M -2.001691 -1.99998 " transform="matrix(0.990713, 0, 0, -0.990713, 137.100289, 56.209999)"/>
<path fill-rule="nonzero" fill="rgb(20.391846%, 59.606934%, 85.881042%)" fill-opacity="1" stroke-width="1" stroke-linecap="butt" stroke-linejoin="miter" stroke="rgb(20.391846%, 59.606934%, 85.881042%)" stroke-opacity="1" stroke-miterlimit="10" d="M -1.998623 -1.998909 L 1.999444 -1.998909 L 1.999444 1.999158 L -1.998623 1.999158 Z M -1.998623 -1.998909 " transform="matrix(0.990713, 0, 0, -0.990713, 173.577718, 50.320436)"/>
<path fill-rule="nonzero" fill="rgb(20.391846%, 59.606934%, 85.881042%)" fill-opacity="1" stroke-width="1" stroke-linecap="butt" stroke-linejoin="miter" stroke="rgb(20.391846%, 59.606934%, 85.881042%)" stroke-opacity="1" stroke-miterlimit="10" d="M -1.999497 -2.001758 L 1.99857 -2.001758 L 1.99857 2.000252 L -1.999497 2.000252 Z M -1.999497 -2.001758 " transform="matrix(0.990713, 0, 0, -0.990713, 210.055147, 39.700426)"/>
<path fill="none" stroke-width="0.6" stroke-linecap="square" stroke-linejoin="miter" stroke="rgb(0%, 0%, 0%)" stroke-opacity="1" stroke-miterlimit="10" d="M 133.607355 18.579219 L 133.607355 71.279577 " transform="matrix(0.990713, 0, 0, -0.990713, 1.086563, 77.539488)"/>
<path fill="none" stroke-width="0.6" stroke-linecap="square" stroke-linejoin="miter" stroke="rgb(0%, 0%, 0%)" stroke-opacity="1" stroke-miterlimit="10" d="M 214.609612 18.579219 L 214.609612 71.279577 " transform="matrix(0.990713, 0, 0, -0.990713, 1.086563, 77.539488)"/>
<path fill="none" stroke-width="0.6" stroke-linecap="square" stroke-linejoin="miter" stroke="rgb(0%, 0%, 0%)" stroke-opacity="1" stroke-miterlimit="10" d="M 133.607355 18.579219 L 214.609612 18.579219 " transform="matrix(0.990713, 0, 0, -0.990713, 1.086563, 77.539488)"/>
</svg>
